<svg xmlns="http://www.w3.org/2000/svg" xmlns:xlink="http://www.w3.org/1999/xlink" width="500" zoomAndPan="magnify" viewBox="0 0 375 374.999991" height="500" preserveAspectRatio="xMidYMid meet" version="1.0"><defs><clipPath id="c9f49f6bd4"><path d="M 130.328125 32.125 L 323.375 32.125 L 323.375 297 L 130.328125 297 Z M 130.328125 32.125 " clip-rule="nonzero"/></clipPath><clipPath id="968e9e515a"><path d="M 51.507812 219 L 186 219 L 186 353.875 L 51.507812 353.875 Z M 51.507812 219 " clip-rule="nonzero"/></clipPath></defs><path fill="#000000" d="M 264.667969 252.890625 L 264.511719 255.085938 L 262.621094 255.160156 L 249.851562 274.914062 L 248.617188 274.617188 L 245.144531 273.78125 L 242.617188 250.328125 L 240.957031 249.394531 L 241.820312 247.371094 L 246.078125 248.402344 L 246.394531 251.183594 L 246.136719 251.175781 L 246.605469 255.832031 L 246.925781 255.910156 L 254.703125 257.789062 L 257.210938 253.851562 L 254.972656 252.78125 L 255.832031 250.757812 L 264.667969 252.890625 " fill-opacity="1" fill-rule="nonzero"/><path fill="#000000" d="M 236.089844 215.722656 L 187.246094 203.925781 C 187.246094 203.925781 195.117188 202.695312 203.152344 198.230469 C 212.230469 193.191406 217.160156 187.058594 217.160156 187.058594 C 217.160156 187.058594 218.753906 194.765625 224.527344 203.394531 C 229.644531 211.03125 236.089844 215.722656 236.089844 215.722656 " fill-opacity="1" fill-rule="nonzero"/><path fill="#000000" d="M 247.132812 141.84375 C 255.351562 153.207031 269.765625 161.8125 265.710938 178.59375 C 262.835938 190.53125 252.222656 198.546875 240.480469 198.6875 C 238.34375 198.710938 236.164062 198.503906 233.980469 197.980469 C 226.757812 196.230469 220.972656 191.652344 217.484375 185.710938 C 211.679688 189.410156 204.433594 190.84375 197.207031 189.101562 C 183.09375 185.691406 174.410156 171.488281 177.828125 157.375 C 181.871094 140.589844 198.621094 139.507812 211.117188 133.15625 C 220.777344 128.242188 228.21875 122.515625 231.636719 120.136719 C 232.675781 119.410156 233.359375 118.984375 233.59375 119 C 234.539062 119.402344 238.847656 130.398438 247.132812 141.84375 " fill-opacity="1" fill-rule="nonzero"/><path fill="#000000" d="M 197.089844 66.960938 L 196.230469 57.515625 L 195.941406 57.445312 L 190.792969 65.4375 Z M 204.839844 76.71875 L 203.972656 78.742188 L 195.136719 76.609375 L 195.289062 74.410156 L 197.765625 74.484375 L 197.339844 69.839844 L 189.238281 67.878906 L 186.699219 71.804688 L 188.941406 72.878906 L 188.074219 74.90625 L 181.117188 73.222656 L 181.269531 71.03125 L 183.183594 70.960938 L 196.132812 51.25 L 200.835938 52.386719 L 203.191406 75.785156 L 204.839844 76.71875 " fill-opacity="1" fill-rule="nonzero"/><path fill="#000000" d="M 106.390625 71.136719 L 106.992188 73.21875 L 104.503906 74.121094 L 106.257812 89.675781 C 106.492188 91.773438 106.058594 93.441406 104.972656 94.675781 C 103.875 95.910156 102.078125 96.667969 99.570312 96.949219 C 98.695312 97.050781 97.789062 97.0625 96.84375 96.972656 C 95.894531 96.890625 95.066406 96.753906 94.355469 96.566406 L 93.410156 91.5625 L 96.113281 90.855469 L 98.023438 94.210938 C 98.46875 94.292969 98.9375 94.304688 99.433594 94.253906 C 99.722656 94.222656 99.996094 94.164062 100.273438 94.082031 C 100.539062 94.003906 100.746094 93.929688 100.878906 93.851562 C 100.941406 93.492188 100.964844 92.925781 100.949219 92.160156 C 100.945312 91.386719 100.894531 90.5625 100.792969 89.671875 L 99.109375 74.726562 L 95.570312 74.507812 L 95.6875 72.34375 L 106.390625 71.136719 " fill-opacity="1" fill-rule="nonzero"/><path fill="#ebedef" d="M 248.28125 267.949219 L 253.167969 260.234375 L 247.25 258.804688 Z M 248.28125 267.949219 " fill-opacity="1" fill-rule="nonzero"/><path fill="#ebedef" d="M 196.230469 57.515625 L 197.089844 66.960938 L 190.792969 65.4375 L 195.941406 57.445312 L 196.230469 57.515625 " fill-opacity="1" fill-rule="nonzero"/><g clip-path="url(#c9f49f6bd4)"><path fill="#ebedef" d="M 203.972656 78.742188 L 204.839844 76.71875 L 203.191406 75.785156 L 200.835938 52.386719 L 196.132812 51.25 L 183.183594 70.960938 L 181.269531 71.03125 L 181.117188 73.222656 L 188.074219 74.90625 L 188.941406 72.878906 L 186.699219 71.804688 L 189.238281 67.878906 L 197.339844 69.839844 L 197.765625 74.484375 L 195.289062 74.410156 L 195.136719 76.609375 Z M 264.511719 255.085938 L 264.667969 252.890625 L 255.832031 250.757812 L 254.972656 252.78125 L 257.210938 253.851562 L 254.703125 257.789062 L 246.925781 255.910156 L 246.605469 255.832031 L 246.136719 251.175781 L 246.394531 251.183594 L 246.078125 248.402344 L 241.820312 247.371094 L 240.957031 249.394531 L 242.617188 250.328125 L 245.144531 273.78125 L 248.617188 274.617188 L 249.851562 274.914062 L 262.621094 255.160156 Z M 317.925781 64.839844 C 321.746094 65.761719 324.097656 69.609375 323.175781 73.4375 L 270.585938 291.242188 C 269.796875 294.507812 266.878906 296.703125 263.664062 296.703125 C 263.105469 296.703125 262.546875 296.636719 261.980469 296.503906 L 209.65625 283.867188 L 184.460938 277.785156 C 181.164062 248.832031 158.910156 225.578125 130.441406 220.75 L 172.097656 48.269531 L 174.675781 37.582031 C 175.460938 34.3125 178.382812 32.125 181.59375 32.125 C 182.152344 32.125 182.714844 32.1875 183.277344 32.328125 Z M 217.484375 185.710938 C 220.972656 191.652344 226.757812 196.230469 233.980469 197.980469 C 236.164062 198.503906 238.34375 198.710938 240.480469 198.6875 C 252.222656 198.546875 262.835938 190.53125 265.710938 178.59375 C 269.765625 161.8125 255.351562 153.207031 247.132812 141.84375 C 238.847656 130.398438 234.539062 119.402344 233.59375 119 C 233.359375 118.984375 232.675781 119.410156 231.636719 120.136719 C 228.21875 122.515625 220.777344 128.242188 211.117188 133.15625 C 198.621094 139.507812 181.871094 140.589844 177.828125 157.375 C 174.410156 171.488281 183.09375 185.691406 197.207031 189.101562 C 204.433594 190.84375 211.679688 189.410156 217.484375 185.710938 Z M 217.160156 187.058594 C 217.160156 187.058594 212.230469 193.191406 203.152344 198.230469 C 195.117188 202.695312 187.246094 203.925781 187.246094 203.925781 L 236.089844 215.722656 C 236.089844 215.722656 229.644531 211.03125 224.527344 203.394531 C 218.753906 194.765625 217.160156 187.058594 217.160156 187.058594 " fill-opacity="1" fill-rule="nonzero"/></g><path fill="#ebedef" d="M 106.992188 73.21875 L 106.390625 71.136719 L 95.6875 72.34375 L 95.570312 74.507812 L 99.109375 74.726562 L 100.792969 89.671875 C 100.894531 90.5625 100.945312 91.386719 100.949219 92.160156 C 100.964844 92.925781 100.941406 93.492188 100.878906 93.851562 C 100.746094 93.929688 100.539062 94.003906 100.273438 94.082031 C 99.996094 94.164062 99.722656 94.222656 99.433594 94.253906 C 98.9375 94.304688 98.46875 94.292969 98.023438 94.210938 L 96.113281 90.855469 L 93.410156 91.5625 L 94.355469 96.566406 C 95.066406 96.753906 95.894531 96.890625 96.84375 96.972656 C 97.789062 97.0625 98.695312 97.050781 99.570312 96.949219 C 102.078125 96.667969 103.875 95.910156 104.972656 94.675781 C 106.058594 93.441406 106.492188 91.773438 106.257812 89.675781 L 104.503906 74.121094 Z M 165.425781 49.019531 L 124.136719 220 C 122.59375 219.886719 121.046875 219.8125 119.480469 219.8125 C 108.847656 219.8125 98.804688 222.378906 89.921875 226.902344 L 71.886719 66.726562 C 71.445312 62.8125 74.261719 59.285156 78.167969 58.84375 L 165.425781 49.019531 " fill-opacity="1" fill-rule="nonzero"/><path fill="#ebedef" d="M 61.554688 287.078125 C 61.554688 286.34375 60.957031 285.753906 60.226562 285.753906 C 59.488281 285.753906 58.894531 286.347656 58.894531 287.089844 C 58.910156 290.769531 59.25 294.457031 59.925781 298.050781 C 60.046875 298.691406 60.605469 299.132812 61.230469 299.132812 C 61.3125 299.132812 61.394531 299.125 61.476562 299.109375 C 62.199219 298.972656 62.675781 298.28125 62.539062 297.558594 C 61.890625 294.128906 61.5625 290.601562 61.554688 287.078125 " fill-opacity="1" fill-rule="nonzero"/><path fill="#ebedef" d="M 103.078125 341.886719 C 99.703125 340.9375 96.394531 339.664062 93.257812 338.101562 C 92.601562 337.769531 91.808594 338.039062 91.476562 338.699219 C 91.152344 339.351562 91.417969 340.148438 92.074219 340.476562 C 95.363281 342.113281 98.824219 343.445312 102.355469 344.445312 C 102.476562 344.484375 102.597656 344.496094 102.714844 344.496094 C 103.296875 344.496094 103.828125 344.117188 103.996094 343.527344 C 104.191406 342.828125 103.785156 342.089844 103.078125 341.886719 " fill-opacity="1" fill-rule="nonzero"/><path fill="#ebedef" d="M 84.296875 332.5625 C 81.496094 330.453125 78.882812 328.070312 76.511719 325.476562 C 76.019531 324.933594 75.175781 324.894531 74.636719 325.394531 C 74.09375 325.886719 74.058594 326.722656 74.550781 327.269531 C 77.03125 329.980469 79.773438 332.472656 82.703125 334.679688 C 82.945312 334.863281 83.226562 334.949219 83.496094 334.949219 C 83.902344 334.949219 84.296875 334.769531 84.5625 334.421875 C 85.003906 333.835938 84.882812 333.003906 84.296875 332.5625 " fill-opacity="1" fill-rule="nonzero"/><path fill="#ebedef" d="M 65.429688 307.679688 C 65.167969 306.996094 64.394531 306.65625 63.710938 306.925781 C 63.027344 307.191406 62.691406 307.960938 62.957031 308.644531 C 64.285156 312.058594 65.949219 315.371094 67.894531 318.496094 C 68.144531 318.902344 68.578125 319.117188 69.019531 319.117188 C 69.257812 319.117188 69.503906 319.054688 69.71875 318.917969 C 70.34375 318.527344 70.535156 317.710938 70.148438 317.089844 C 68.289062 314.109375 66.699219 310.945312 65.429688 307.679688 " fill-opacity="1" fill-rule="nonzero"/><path fill="#ebedef" d="M 60.949219 277.660156 C 61.027344 277.671875 61.109375 277.679688 61.1875 277.679688 C 61.816406 277.679688 62.375 277.230469 62.496094 276.59375 C 63.125 273.144531 64.089844 269.738281 65.351562 266.460938 C 65.613281 265.777344 65.265625 265.007812 64.585938 264.746094 C 63.902344 264.484375 63.132812 264.820312 62.867188 265.503906 C 61.546875 268.929688 60.546875 272.503906 59.882812 276.113281 C 59.753906 276.832031 60.226562 277.523438 60.949219 277.660156 " fill-opacity="1" fill-rule="nonzero"/><path fill="#ebedef" d="M 68.199219 257.460938 C 68.414062 257.597656 68.652344 257.65625 68.894531 257.65625 C 69.339844 257.65625 69.769531 257.4375 70.023438 257.027344 C 71.867188 254.046875 73.992188 251.210938 76.351562 248.613281 C 76.84375 248.070312 76.804688 247.234375 76.265625 246.742188 C 75.722656 246.246094 74.878906 246.289062 74.386719 246.828125 C 71.921875 249.546875 69.691406 252.511719 67.765625 255.632812 C 67.375 256.253906 67.574219 257.074219 68.199219 257.460938 " fill-opacity="1" fill-rule="nonzero"/><path fill="#ebedef" d="M 123.71875 230.105469 C 127.222656 230.414062 130.707031 231.050781 134.078125 231.992188 C 134.191406 232.027344 134.320312 232.046875 134.433594 232.046875 C 135.015625 232.046875 135.542969 231.660156 135.707031 231.078125 C 135.910156 230.371094 135.492188 229.636719 134.792969 229.441406 C 131.257812 228.453125 127.617188 227.785156 123.957031 227.464844 C 123.226562 227.410156 122.582031 227.933594 122.515625 228.664062 C 122.449219 229.394531 122.988281 230.042969 123.71875 230.105469 " fill-opacity="1" fill-rule="nonzero"/><path fill="#ebedef" d="M 143.902344 235.765625 C 147.046875 237.320312 150.058594 239.175781 152.867188 241.285156 C 153.109375 241.464844 153.386719 241.546875 153.667969 241.546875 C 154.066406 241.546875 154.46875 241.367188 154.726562 241.019531 C 155.167969 240.433594 155.050781 239.605469 154.460938 239.160156 C 151.523438 236.953125 148.367188 235.011719 145.074219 233.386719 C 144.421875 233.058594 143.628906 233.328125 143.304688 233.984375 C 142.976562 234.644531 143.25 235.441406 143.902344 235.765625 " fill-opacity="1" fill-rule="nonzero"/><path fill="#ebedef" d="M 102.484375 232.140625 C 102.601562 232.140625 102.722656 232.128906 102.847656 232.089844 C 106.210938 231.128906 109.6875 230.464844 113.1875 230.132812 C 113.921875 230.070312 114.453125 229.421875 114.386719 228.691406 C 114.316406 227.960938 113.675781 227.421875 112.941406 227.496094 C 109.277344 227.839844 105.636719 228.527344 102.113281 229.539062 C 101.40625 229.742188 101 230.480469 101.203125 231.179688 C 101.375 231.761719 101.902344 232.140625 102.484375 232.140625 " fill-opacity="1" fill-rule="nonzero"/><path fill="#ebedef" d="M 83.3125 241.769531 C 83.59375 241.769531 83.875 241.679688 84.113281 241.5 C 86.910156 239.371094 89.917969 237.496094 93.046875 235.925781 C 93.703125 235.59375 93.964844 234.796875 93.632812 234.140625 C 93.300781 233.488281 92.507812 233.222656 91.847656 233.554688 C 88.574219 235.195312 85.433594 237.15625 82.507812 239.386719 C 81.917969 239.828125 81.8125 240.660156 82.257812 241.246094 C 82.511719 241.589844 82.90625 241.769531 83.3125 241.769531 " fill-opacity="1" fill-rule="nonzero"/><path fill="#ebedef" d="M 167.058594 256.726562 C 167.3125 257.132812 167.746094 257.351562 168.179688 257.351562 C 168.421875 257.351562 168.667969 257.285156 168.886719 257.144531 C 169.507812 256.757812 169.699219 255.9375 169.308594 255.320312 C 167.363281 252.210938 165.117188 249.265625 162.632812 246.558594 C 162.132812 246.015625 161.296875 245.980469 160.753906 246.480469 C 160.21875 246.972656 160.179688 247.8125 160.675781 248.359375 C 163.054688 250.9375 165.199219 253.757812 167.058594 256.726562 " fill-opacity="1" fill-rule="nonzero"/><path fill="#ebedef" d="M 173.59375 306.8125 C 172.910156 306.550781 172.144531 306.886719 171.878906 307.566406 C 170.613281 310.835938 169.035156 314.003906 167.183594 316.992188 C 166.792969 317.613281 166.984375 318.429688 167.609375 318.8125 C 167.828125 318.949219 168.070312 319.015625 168.3125 319.015625 C 168.75 319.015625 169.1875 318.792969 169.4375 318.394531 C 171.371094 315.265625 173.03125 311.949219 174.355469 308.53125 C 174.621094 307.84375 174.277344 307.078125 173.59375 306.8125 " fill-opacity="1" fill-rule="nonzero"/><path fill="#ebedef" d="M 176.007812 277.320312 C 176.097656 277.320312 176.175781 277.316406 176.257812 277.296875 C 176.980469 277.160156 177.453125 276.460938 177.316406 275.746094 C 176.628906 272.136719 175.605469 268.574219 174.265625 265.15625 C 173.996094 264.476562 173.226562 264.136719 172.539062 264.410156 C 171.863281 264.675781 171.527344 265.445312 171.789062 266.125 C 173.070312 269.390625 174.050781 272.796875 174.710938 276.242188 C 174.828125 276.878906 175.382812 277.320312 176.007812 277.320312 " fill-opacity="1" fill-rule="nonzero"/><path fill="#ebedef" d="M 177.042969 285.507812 C 177.042969 285.507812 177.035156 285.507812 177.027344 285.507812 C 176.300781 285.511719 175.710938 286.226562 175.710938 286.960938 C 175.710938 290.480469 175.386719 294.007812 174.753906 297.441406 C 174.613281 298.160156 175.09375 298.859375 175.8125 298.992188 C 175.894531 299.007812 175.976562 299.011719 176.050781 299.011719 C 176.683594 299.011719 177.242188 298.570312 177.359375 297.925781 C 178.027344 294.332031 178.371094 290.640625 178.371094 286.832031 C 178.371094 286.832031 178.371094 286.703125 178.371094 286.703125 C 178.355469 285.976562 177.773438 285.507812 177.042969 285.507812 " fill-opacity="1" fill-rule="nonzero"/><path fill="#ebedef" d="M 144.113281 338.050781 C 140.976562 339.617188 137.667969 340.898438 134.300781 341.859375 C 133.601562 342.0625 133.1875 342.796875 133.390625 343.5 C 133.554688 344.085938 134.085938 344.464844 134.667969 344.464844 C 134.789062 344.464844 134.90625 344.445312 135.03125 344.414062 C 138.558594 343.40625 142.015625 342.066406 145.296875 340.421875 C 145.957031 340.09375 146.222656 339.296875 145.894531 338.640625 C 145.566406 337.980469 144.773438 337.71875 144.113281 338.050781 " fill-opacity="1" fill-rule="nonzero"/><path fill="#ebedef" d="M 160.832031 325.394531 C 158.46875 327.984375 155.859375 330.375 153.058594 332.492188 C 152.476562 332.933594 152.359375 333.765625 152.800781 334.355469 C 153.0625 334.695312 153.457031 334.878906 153.859375 334.878906 C 154.140625 334.878906 154.421875 334.789062 154.660156 334.609375 C 157.589844 332.394531 160.320312 329.894531 162.796875 327.179688 C 163.289062 326.636719 163.25 325.800781 162.710938 325.304688 C 162.167969 324.808594 161.328125 324.851562 160.832031 325.394531 " fill-opacity="1" fill-rule="nonzero"/><path fill="#ebedef" d="M 123.957031 343.792969 C 120.488281 344.109375 116.902344 344.117188 113.429688 343.804688 C 112.6875 343.734375 112.054688 344.28125 111.988281 345.007812 C 111.917969 345.738281 112.460938 346.382812 113.1875 346.449219 C 114.984375 346.613281 116.8125 346.695312 118.632812 346.695312 C 120.492188 346.695312 122.371094 346.605469 124.203125 346.4375 C 124.9375 346.367188 125.472656 345.71875 125.402344 344.992188 C 125.335938 344.265625 124.683594 343.726562 123.957031 343.792969 " fill-opacity="1" fill-rule="nonzero"/><path fill="#ebedef" d="M 129.382812 303.984375 C 125.160156 303.984375 121.351562 302.230469 118.632812 299.410156 C 115.914062 302.230469 112.105469 303.984375 107.882812 303.984375 C 99.636719 303.984375 92.9375 297.300781 92.9375 289.046875 C 92.9375 279.238281 102.054688 276.40625 108.105469 271.222656 C 114.207031 266.007812 118.0625 260.507812 118.632812 260.410156 C 119.207031 260.507812 123.054688 266.007812 129.160156 271.222656 C 135.214844 276.40625 144.324219 279.238281 144.324219 289.046875 C 144.324219 297.300781 137.628906 303.984375 129.382812 303.984375 Z M 118.632812 313.503906 L 104.355469 313.503906 C 104.355469 313.503906 108.539062 311.777344 112.382812 308.242188 C 116.726562 304.242188 118.632812 300.199219 118.632812 300.199219 C 118.632812 300.199219 120.542969 304.242188 124.878906 308.242188 C 128.726562 311.777344 132.910156 313.503906 132.910156 313.503906 Z M 158.453125 286.960938 C 158.453125 281.558594 157.382812 276.417969 155.429688 271.71875 L 164 268.167969 C 161.511719 262.171875 157.875 256.769531 153.351562 252.246094 L 146.792969 258.800781 C 143.125 255.132812 138.742188 252.183594 133.875 250.164062 L 137.421875 241.589844 C 131.636719 239.179688 125.285156 237.847656 118.632812 237.847656 L 118.632812 247.136719 C 113.230469 247.136719 108.082031 248.214844 103.390625 250.164062 L 99.839844 241.589844 C 93.84375 244.085938 88.445312 247.722656 83.921875 252.246094 L 90.476562 258.800781 C 86.808594 262.46875 83.855469 266.851562 81.839844 271.714844 L 73.261719 268.167969 C 70.859375 273.957031 69.519531 280.304688 69.519531 286.960938 L 78.8125 286.960938 C 78.8125 292.359375 79.890625 297.507812 81.839844 302.199219 L 73.269531 305.75 C 75.753906 311.746094 79.398438 317.148438 83.921875 321.667969 L 90.476562 315.117188 C 94.144531 318.789062 98.527344 321.738281 103.394531 323.753906 L 99.839844 332.332031 C 105.636719 334.738281 111.976562 336.070312 118.632812 336.070312 L 118.632812 326.78125 C 124.035156 326.78125 129.183594 325.703125 133.875 323.753906 L 137.421875 332.332031 C 143.421875 329.835938 148.820312 326.195312 153.34375 321.667969 L 146.785156 315.117188 C 150.464844 311.453125 153.40625 307.066406 155.425781 302.199219 L 164 305.75 C 166.410156 299.957031 167.746094 293.617188 167.746094 286.960938 L 158.453125 286.960938 " fill-opacity="1" fill-rule="nonzero"/><g clip-path="url(#968e9e515a)"><path fill="#ff3131" d="M 154.660156 334.609375 C 154.421875 334.789062 154.140625 334.878906 153.859375 334.878906 C 153.457031 334.878906 153.0625 334.695312 152.800781 334.355469 C 152.359375 333.765625 152.476562 332.933594 153.058594 332.492188 C 155.859375 330.375 158.46875 327.984375 160.832031 325.394531 C 161.328125 324.851562 162.167969 324.808594 162.710938 325.304688 C 163.25 325.800781 163.289062 326.636719 162.796875 327.179688 C 160.320312 329.894531 157.589844 332.394531 154.660156 334.609375 Z M 111.988281 345.007812 C 112.054688 344.28125 112.6875 343.734375 113.429688 343.804688 C 116.902344 344.117188 120.488281 344.109375 123.957031 343.792969 C 124.683594 343.726562 125.335938 344.265625 125.402344 344.992188 C 125.472656 345.71875 124.9375 346.367188 124.203125 346.4375 C 122.371094 346.605469 120.492188 346.695312 118.632812 346.695312 C 116.8125 346.695312 114.984375 346.613281 113.1875 346.449219 C 112.460938 346.382812 111.917969 345.738281 111.988281 345.007812 Z M 74.636719 325.394531 C 75.175781 324.894531 76.019531 324.933594 76.511719 325.476562 C 78.882812 328.070312 81.496094 330.453125 84.296875 332.5625 C 84.882812 333.003906 85.003906 333.835938 84.5625 334.421875 C 84.296875 334.769531 83.902344 334.949219 83.496094 334.949219 C 83.226562 334.949219 82.945312 334.863281 82.703125 334.679688 C 79.773438 332.472656 77.03125 329.980469 74.550781 327.269531 C 74.058594 326.722656 74.09375 325.886719 74.636719 325.394531 Z M 60.226562 285.753906 C 60.957031 285.753906 61.554688 286.34375 61.554688 287.078125 C 61.5625 290.601562 61.890625 294.128906 62.539062 297.558594 C 62.675781 298.28125 62.199219 298.972656 61.476562 299.109375 C 61.394531 299.125 61.3125 299.132812 61.230469 299.132812 C 60.605469 299.132812 60.046875 298.691406 59.925781 298.050781 C 59.25 294.457031 58.910156 290.769531 58.894531 287.089844 C 58.894531 286.347656 59.488281 285.753906 60.226562 285.753906 Z M 76.265625 246.742188 C 76.804688 247.234375 76.84375 248.070312 76.351562 248.613281 C 73.992188 251.210938 71.867188 254.046875 70.023438 257.027344 C 69.769531 257.4375 69.339844 257.65625 68.894531 257.65625 C 68.652344 257.65625 68.414062 257.597656 68.199219 257.460938 C 67.574219 257.074219 67.375 256.253906 67.765625 255.632812 C 69.691406 252.511719 71.921875 249.546875 74.386719 246.828125 C 74.878906 246.289062 75.722656 246.246094 76.265625 246.742188 Z M 113.1875 230.132812 C 109.6875 230.464844 106.210938 231.128906 102.847656 232.089844 C 102.722656 232.128906 102.601562 232.140625 102.484375 232.140625 C 101.902344 232.140625 101.375 231.761719 101.203125 231.179688 C 101 230.480469 101.40625 229.742188 102.113281 229.539062 C 105.636719 228.527344 109.277344 227.839844 112.941406 227.496094 C 113.675781 227.421875 114.316406 227.960938 114.386719 228.691406 C 114.453125 229.421875 113.921875 230.070312 113.1875 230.132812 Z M 82.507812 239.386719 C 85.433594 237.15625 88.574219 235.195312 91.847656 233.554688 C 92.507812 233.222656 93.300781 233.488281 93.632812 234.140625 C 93.964844 234.796875 93.703125 235.59375 93.046875 235.925781 C 89.917969 237.496094 86.910156 239.371094 84.113281 241.5 C 83.875 241.679688 83.59375 241.769531 83.3125 241.769531 C 82.90625 241.769531 82.511719 241.589844 82.257812 241.246094 C 81.8125 240.660156 81.917969 239.828125 82.507812 239.386719 Z M 62.496094 276.59375 C 62.375 277.230469 61.816406 277.679688 61.1875 277.679688 C 61.109375 277.679688 61.027344 277.671875 60.949219 277.660156 C 60.226562 277.523438 59.753906 276.832031 59.882812 276.113281 C 60.546875 272.503906 61.546875 268.929688 62.867188 265.503906 C 63.132812 264.820312 63.902344 264.484375 64.585938 264.746094 C 65.265625 265.007812 65.613281 265.777344 65.351562 266.460938 C 64.089844 269.738281 63.125 273.144531 62.496094 276.59375 Z M 63.710938 306.925781 C 64.394531 306.65625 65.167969 306.996094 65.429688 307.679688 C 66.699219 310.945312 68.289062 314.109375 70.148438 317.089844 C 70.535156 317.710938 70.34375 318.527344 69.71875 318.917969 C 69.503906 319.054688 69.257812 319.117188 69.019531 319.117188 C 68.578125 319.117188 68.144531 318.902344 67.894531 318.496094 C 65.949219 315.371094 64.285156 312.058594 62.957031 308.644531 C 62.691406 307.960938 63.027344 307.191406 63.710938 306.925781 Z M 103.996094 343.527344 C 103.828125 344.117188 103.296875 344.496094 102.714844 344.496094 C 102.597656 344.496094 102.476562 344.484375 102.355469 344.445312 C 98.824219 343.445312 95.363281 342.113281 92.074219 340.476562 C 91.417969 340.148438 91.152344 339.351562 91.476562 338.699219 C 91.808594 338.039062 92.601562 337.769531 93.257812 338.101562 C 96.394531 339.664062 99.703125 340.9375 103.078125 341.886719 C 103.785156 342.089844 104.191406 342.828125 103.996094 343.527344 Z M 145.296875 340.421875 C 142.015625 342.066406 138.558594 343.40625 135.03125 344.414062 C 134.90625 344.445312 134.789062 344.464844 134.667969 344.464844 C 134.085938 344.464844 133.554688 344.085938 133.390625 343.5 C 133.1875 342.796875 133.601562 342.0625 134.300781 341.859375 C 137.667969 340.898438 140.976562 339.617188 144.113281 338.050781 C 144.773438 337.71875 145.566406 337.980469 145.894531 338.640625 C 146.222656 339.296875 145.957031 340.09375 145.296875 340.421875 Z M 118.632812 237.847656 C 125.285156 237.847656 131.636719 239.179688 137.421875 241.589844 L 133.875 250.164062 C 138.742188 252.183594 143.125 255.132812 146.792969 258.800781 L 153.351562 252.246094 C 157.875 256.769531 161.511719 262.171875 164 268.167969 L 155.429688 271.71875 C 157.382812 276.417969 158.453125 281.558594 158.453125 286.960938 L 167.746094 286.960938 C 167.746094 293.617188 166.410156 299.957031 164 305.75 L 155.425781 302.199219 C 153.40625 307.066406 150.464844 311.453125 146.785156 315.117188 L 153.34375 321.667969 C 148.820312 326.195312 143.421875 329.835938 137.421875 332.332031 L 133.875 323.753906 C 129.183594 325.703125 124.035156 326.78125 118.632812 326.78125 L 118.632812 336.070312 C 111.976562 336.070312 105.636719 334.738281 99.839844 332.332031 L 103.394531 323.753906 C 98.527344 321.738281 94.144531 318.789062 90.476562 315.117188 L 83.921875 321.667969 C 79.398438 317.148438 75.753906 311.746094 73.269531 305.75 L 81.839844 302.199219 C 79.890625 297.507812 78.8125 292.359375 78.8125 286.960938 L 69.519531 286.960938 C 69.519531 280.304688 70.859375 273.957031 73.261719 268.167969 L 81.839844 271.714844 C 83.855469 266.851562 86.808594 262.46875 90.476562 258.800781 L 83.921875 252.246094 C 88.445312 247.722656 93.84375 244.085938 99.839844 241.589844 L 103.390625 250.164062 C 108.082031 248.214844 113.230469 247.136719 118.632812 247.136719 Z M 135.707031 231.078125 C 135.542969 231.660156 135.015625 232.046875 134.433594 232.046875 C 134.320312 232.046875 134.191406 232.027344 134.078125 231.992188 C 130.707031 231.050781 127.222656 230.414062 123.71875 230.105469 C 122.988281 230.042969 122.449219 229.394531 122.515625 228.664062 C 122.582031 227.933594 123.226562 227.410156 123.957031 227.464844 C 127.617188 227.785156 131.257812 228.453125 134.792969 229.441406 C 135.492188 229.636719 135.910156 230.371094 135.707031 231.078125 Z M 154.726562 241.019531 C 154.46875 241.367188 154.066406 241.546875 153.667969 241.546875 C 153.386719 241.546875 153.109375 241.464844 152.867188 241.285156 C 150.058594 239.175781 147.046875 237.320312 143.902344 235.765625 C 143.25 235.441406 142.976562 234.644531 143.304688 233.984375 C 143.628906 233.328125 144.421875 233.058594 145.074219 233.386719 C 148.367188 235.011719 151.523438 236.953125 154.460938 239.160156 C 155.050781 239.605469 155.167969 240.433594 154.726562 241.019531 Z M 169.308594 255.320312 C 169.699219 255.9375 169.507812 256.757812 168.886719 257.144531 C 168.667969 257.285156 168.421875 257.351562 168.179688 257.351562 C 167.746094 257.351562 167.3125 257.132812 167.058594 256.726562 C 165.199219 253.757812 163.054688 250.9375 160.675781 248.359375 C 160.179688 247.8125 160.21875 246.972656 160.753906 246.480469 C 161.296875 245.980469 162.132812 246.015625 162.632812 246.558594 C 165.117188 249.265625 167.363281 252.210938 169.308594 255.320312 Z M 174.753906 297.441406 C 175.386719 294.007812 175.710938 290.480469 175.710938 286.960938 C 175.710938 286.226562 176.300781 285.511719 177.027344 285.507812 C 177.035156 285.507812 177.042969 285.507812 177.042969 285.507812 C 177.773438 285.507812 178.355469 285.976562 178.371094 286.703125 C 178.371094 286.703125 178.371094 286.832031 178.371094 286.832031 C 178.371094 290.640625 178.027344 294.332031 177.359375 297.925781 C 177.242188 298.570312 176.683594 299.011719 176.050781 299.011719 C 175.976562 299.011719 175.894531 299.007812 175.8125 298.992188 C 175.09375 298.859375 174.613281 298.160156 174.753906 297.441406 Z M 174.355469 308.53125 C 173.03125 311.949219 171.371094 315.265625 169.4375 318.394531 C 169.1875 318.792969 168.75 319.015625 168.3125 319.015625 C 168.070312 319.015625 167.828125 318.949219 167.609375 318.8125 C 166.984375 318.429688 166.792969 317.613281 167.183594 316.992188 C 169.035156 314.003906 170.613281 310.835938 171.878906 307.566406 C 172.144531 306.886719 172.910156 306.550781 173.59375 306.8125 C 174.277344 307.078125 174.621094 307.84375 174.355469 308.53125 Z M 171.789062 266.125 C 171.527344 265.445312 171.863281 264.675781 172.539062 264.410156 C 173.226562 264.136719 173.996094 264.476562 174.265625 265.15625 C 175.605469 268.574219 176.628906 272.136719 177.316406 275.746094 C 177.453125 276.460938 176.980469 277.160156 176.257812 277.296875 C 176.175781 277.316406 176.097656 277.320312 176.007812 277.320312 C 175.382812 277.320312 174.828125 276.878906 174.710938 276.242188 C 174.050781 272.796875 173.070312 269.390625 171.789062 266.125 Z M 118.632812 219.925781 C 81.667969 219.925781 51.59375 249.996094 51.59375 286.960938 C 51.59375 323.925781 81.667969 353.992188 118.632812 353.992188 C 155.59375 353.992188 185.667969 323.925781 185.667969 286.960938 C 185.667969 249.996094 155.59375 219.925781 118.632812 219.925781 " fill-opacity="1" fill-rule="nonzero"/></g><path fill="#000000" d="M 129.160156 271.222656 C 123.054688 266.007812 119.207031 260.507812 118.632812 260.410156 C 118.0625 260.507812 114.207031 266.007812 108.105469 271.222656 C 102.054688 276.40625 92.9375 279.238281 92.9375 289.046875 C 92.9375 297.300781 99.636719 303.984375 107.882812 303.984375 C 112.105469 303.984375 115.914062 302.230469 118.632812 299.410156 C 121.351562 302.230469 125.160156 303.984375 129.382812 303.984375 C 137.628906 303.984375 144.324219 297.300781 144.324219 289.046875 C 144.324219 279.238281 135.214844 276.40625 129.160156 271.222656 " fill-opacity="1" fill-rule="nonzero"/><path fill="#000000" d="M 118.632812 300.199219 C 118.632812 300.199219 116.726562 304.242188 112.382812 308.242188 C 108.539062 311.777344 104.355469 313.503906 104.355469 313.503906 L 132.910156 313.503906 C 132.910156 313.503906 128.726562 311.777344 124.878906 308.242188 C 120.542969 304.242188 118.632812 300.199219 118.632812 300.199219 " fill-opacity="1" fill-rule="nonzero"/></svg>