<svg xmlns="http://www.w3.org/2000/svg" xmlns:xlink="http://www.w3.org/1999/xlink" width="250" zoomAndPan="magnify" viewBox="0 0 187.5 30.000001" height="40" preserveAspectRatio="xMidYMid meet" version="1.0"><defs><g/></defs><g fill="#000000" fill-opacity="1"><g transform="translate(9.218062, 21.722119)"><g><path d="M 1.082031 -7.835938 C 1.039062 -7.4375 0.972656 -6.730469 0.792969 -5.628906 C 0.640625 -4.546875 0.507812 -3.707031 0.417969 -3.113281 C 0.308594 -2.296875 0.242188 -1.742188 0.21875 -1.457031 L 0.21875 -1.191406 C 0.21875 -0.882812 0.285156 -0.640625 0.375 -0.464844 C 0.507812 -0.285156 0.726562 -0.15625 1.082031 -0.0898438 C 1.390625 -0.0429688 2.007812 0 2.957031 0 L 8.144531 0 C 9.136719 0 9.777344 -0.0429688 10.085938 -0.0898438 C 10.503906 -0.175781 10.792969 -0.332031 10.96875 -0.597656 C 11.101562 -0.792969 11.210938 -1.101562 11.300781 -1.5 C 11.367188 -1.789062 11.453125 -2.316406 11.566406 -3.113281 L 12.226562 -7.835938 C 12.359375 -8.671875 12.425781 -9.246094 12.425781 -9.511719 L 12.425781 -9.734375 C 12.425781 -10.0625 12.382812 -10.304688 12.269531 -10.460938 C 12.160156 -10.636719 11.960938 -10.769531 11.695312 -10.8125 C 11.386719 -10.902344 10.703125 -10.925781 9.621094 -10.925781 L 4.546875 -10.925781 C 3.664062 -10.925781 3.066406 -10.925781 2.757812 -10.878906 C 2.316406 -10.835938 2.007812 -10.703125 1.808594 -10.484375 C 1.589844 -10.261719 1.414062 -9.820312 1.28125 -9.136719 C 1.234375 -8.917969 1.167969 -8.476562 1.082031 -7.835938 Z M 5.296875 -7.835938 L 9.09375 -7.835938 L 8.539062 -3.90625 C 8.496094 -3.640625 8.476562 -3.488281 8.429688 -3.398438 C 8.429688 -3.308594 8.386719 -3.246094 8.34375 -3.199219 C 8.296875 -3.15625 8.230469 -3.132812 8.144531 -3.113281 L 3.554688 -3.113281 L 4.105469 -7.019531 C 4.128906 -7.152344 4.148438 -7.261719 4.148438 -7.304688 C 4.191406 -7.503906 4.238281 -7.636719 4.28125 -7.679688 C 4.347656 -7.746094 4.457031 -7.789062 4.589844 -7.8125 C 4.699219 -7.835938 4.945312 -7.835938 5.296875 -7.835938 Z M 5.296875 -7.835938 "/></g></g></g><g fill="#000000" fill-opacity="1"><g transform="translate(21.838345, 21.722119)"><g><path d="M 1.324219 -7.8125 L 1.214844 -7.019531 L 0.773438 -3.90625 L 0.660156 -3.089844 L 0.441406 -1.542969 C 0.417969 -1.324219 0.398438 -1.167969 0.351562 -1.082031 C 0.332031 -0.992188 0.285156 -0.925781 0.242188 -0.839844 C 0.175781 -0.75 0.0664062 -0.640625 -0.109375 -0.484375 C -0.199219 -0.398438 -0.375 -0.242188 -0.660156 0 L 0.351562 0 C 1.214844 0 1.789062 -0.0234375 2.097656 -0.0429688 C 2.582031 -0.109375 2.914062 -0.242188 3.113281 -0.464844 C 3.289062 -0.683594 3.441406 -1.015625 3.53125 -1.480469 C 3.597656 -1.765625 3.6875 -2.296875 3.796875 -3.089844 L 3.90625 -3.90625 L 4.347656 -7.019531 C 4.390625 -7.261719 4.414062 -7.414062 4.414062 -7.480469 C 4.457031 -7.613281 4.523438 -7.703125 4.570312 -7.746094 C 4.613281 -7.789062 4.699219 -7.8125 4.789062 -7.8125 C 4.832031 -7.835938 4.898438 -7.835938 4.988281 -7.835938 C 5.074219 -7.835938 5.164062 -7.835938 5.273438 -7.8125 L 9.3125 -7.8125 L 9.203125 -7.019531 L 8.761719 -3.90625 L 8.652344 -3.089844 L 8.210938 0 C 9.3125 0 10.019531 -0.0429688 10.328125 -0.0898438 C 10.703125 -0.175781 10.96875 -0.308594 11.144531 -0.507812 C 11.277344 -0.683594 11.386719 -0.925781 11.476562 -1.28125 C 11.566406 -1.566406 11.652344 -2.164062 11.785156 -3.089844 L 11.894531 -3.90625 L 12.335938 -7.019531 L 12.445312 -7.8125 C 12.578125 -8.785156 12.644531 -9.421875 12.644531 -9.710938 C 12.644531 -10.195312 12.535156 -10.503906 12.316406 -10.660156 C 12.136719 -10.792969 11.808594 -10.878906 11.34375 -10.902344 C 11.125 -10.925781 10.8125 -10.925781 10.417969 -10.925781 L 4.214844 -10.925781 C 3.574219 -10.925781 3.113281 -10.902344 2.824219 -10.859375 C 2.425781 -10.8125 2.117188 -10.660156 1.941406 -10.417969 C 1.789062 -10.242188 1.65625 -9.910156 1.566406 -9.46875 C 1.523438 -9.203125 1.433594 -8.652344 1.324219 -7.8125 Z M 1.324219 -7.8125 "/></g></g></g><g fill="#000000" fill-opacity="1"><g transform="translate(34.679264, 21.722119)"><g><path d="M 5.515625 -15.472656 C 4.457031 -15.472656 3.773438 -15.449219 3.464844 -15.382812 C 3.132812 -15.339844 2.867188 -15.226562 2.691406 -15.050781 C 2.515625 -14.875 2.363281 -14.589844 2.25 -14.191406 C 2.183594 -13.902344 2.074219 -13.285156 1.941406 -12.359375 L 1.457031 -8.761719 L 1.015625 -5.714844 L 0.441406 -1.609375 C 0.417969 -1.433594 0.398438 -1.300781 0.375 -1.214844 C 0.351562 -1.125 0.308594 -1.058594 0.265625 -0.972656 C 0.21875 -0.882812 0.109375 -0.75 -0.0429688 -0.597656 C -0.132812 -0.507812 -0.332031 -0.332031 -0.660156 -0.0234375 L 0.375 -0.0234375 C 1.347656 -0.0234375 1.984375 -0.0429688 2.296875 -0.0898438 C 2.671875 -0.175781 2.933594 -0.308594 3.113281 -0.484375 C 3.289062 -0.683594 3.421875 -0.992188 3.507812 -1.433594 C 3.597656 -1.722656 3.6875 -2.273438 3.796875 -3.089844 L 4.4375 -7.679688 L 5.054688 -12.09375 Z M 5.515625 -15.472656 "/></g></g></g><g fill="#000000" fill-opacity="1"><g transform="translate(39.753859, 21.722119)"><g><path d="M 5.515625 -15.449219 C 4.503906 -15.449219 3.816406 -15.425781 3.488281 -15.382812 C 3.089844 -15.316406 2.804688 -15.160156 2.605469 -14.941406 C 2.449219 -14.765625 2.316406 -14.433594 2.230469 -13.992188 C 2.164062 -13.726562 2.074219 -13.175781 1.941406 -12.335938 L 1.875 -11.742188 L 5.011719 -11.742188 Z M 1.765625 -10.945312 L 0.441406 -1.609375 C 0.417969 -1.390625 0.398438 -1.257812 0.351562 -1.167969 C 0.332031 -1.058594 0.285156 -0.949219 0.199219 -0.839844 C 0.132812 -0.75 0.0234375 -0.640625 -0.15625 -0.464844 C -0.242188 -0.375 -0.398438 -0.21875 -0.660156 0 L 0.375 0 C 1.167969 0 1.722656 -0.0234375 2.007812 -0.0429688 C 2.492188 -0.0898438 2.847656 -0.21875 3.066406 -0.417969 C 3.265625 -0.617188 3.421875 -0.949219 3.507812 -1.414062 C 3.597656 -1.699219 3.6875 -2.25 3.796875 -3.089844 L 4.898438 -10.945312 Z M 1.765625 -10.945312 "/></g></g></g><g fill="#000000" fill-opacity="1"><g transform="translate(44.828454, 21.722119)"><g><path d="M 1.324219 -7.8125 L 1.214844 -7.019531 L 0.773438 -3.90625 L 0.660156 -3.089844 L 0.441406 -1.542969 C 0.417969 -1.324219 0.398438 -1.167969 0.351562 -1.082031 C 0.332031 -0.992188 0.285156 -0.925781 0.242188 -0.839844 C 0.175781 -0.75 0.0664062 -0.640625 -0.109375 -0.484375 C -0.199219 -0.398438 -0.375 -0.242188 -0.660156 0 L 0.351562 0 C 1.214844 0 1.789062 -0.0234375 2.097656 -0.0429688 C 2.582031 -0.109375 2.914062 -0.242188 3.113281 -0.464844 C 3.289062 -0.683594 3.441406 -1.015625 3.53125 -1.480469 C 3.597656 -1.765625 3.6875 -2.296875 3.796875 -3.089844 L 3.90625 -3.90625 L 4.347656 -7.019531 C 4.390625 -7.261719 4.414062 -7.414062 4.414062 -7.480469 C 4.457031 -7.613281 4.523438 -7.703125 4.570312 -7.746094 C 4.613281 -7.789062 4.699219 -7.8125 4.789062 -7.8125 C 4.832031 -7.835938 4.898438 -7.835938 4.988281 -7.835938 C 5.074219 -7.835938 5.164062 -7.835938 5.273438 -7.8125 L 9.3125 -7.8125 L 9.203125 -7.019531 L 8.761719 -3.90625 L 8.652344 -3.089844 L 8.210938 0 C 9.3125 0 10.019531 -0.0429688 10.328125 -0.0898438 C 10.703125 -0.175781 10.96875 -0.308594 11.144531 -0.507812 C 11.277344 -0.683594 11.386719 -0.925781 11.476562 -1.28125 C 11.566406 -1.566406 11.652344 -2.164062 11.785156 -3.089844 L 11.894531 -3.90625 L 12.335938 -7.019531 L 12.445312 -7.8125 C 12.578125 -8.785156 12.644531 -9.421875 12.644531 -9.710938 C 12.644531 -10.195312 12.535156 -10.503906 12.316406 -10.660156 C 12.136719 -10.792969 11.808594 -10.878906 11.34375 -10.902344 C 11.125 -10.925781 10.8125 -10.925781 10.417969 -10.925781 L 4.214844 -10.925781 C 3.574219 -10.925781 3.113281 -10.902344 2.824219 -10.859375 C 2.425781 -10.8125 2.117188 -10.660156 1.941406 -10.417969 C 1.789062 -10.242188 1.65625 -9.910156 1.566406 -9.46875 C 1.523438 -9.203125 1.433594 -8.652344 1.324219 -7.8125 Z M 1.324219 -7.8125 "/></g></g></g><g fill="#000000" fill-opacity="1"><g transform="translate(57.669373, 21.722119)"><g><path d="M 4.722656 -10.925781 C 3.707031 -10.925781 3.046875 -10.925781 2.738281 -10.878906 C 2.339844 -10.835938 2.03125 -10.703125 1.808594 -10.503906 C 1.609375 -10.304688 1.457031 -9.953125 1.347656 -9.421875 L 1.082031 -7.835938 L 0.417969 -3.113281 C 0.308594 -2.230469 0.242188 -1.65625 0.21875 -1.367188 L 0.21875 -1.191406 C 0.21875 -0.90625 0.265625 -0.683594 0.351562 -0.507812 C 0.484375 -0.308594 0.707031 -0.175781 1.015625 -0.0898438 C 1.324219 -0.0429688 1.898438 0 2.78125 0 L 11.125 0 L 11.125 -0.375 C 11.125 -1.015625 11.125 -1.480469 11.078125 -1.742188 C 11.058594 -2.207031 10.96875 -2.539062 10.792969 -2.714844 C 10.660156 -2.890625 10.417969 -3 10.0625 -3.046875 C 9.820312 -3.089844 9.269531 -3.113281 8.410156 -3.113281 L 3.554688 -3.113281 C 3.597656 -3.332031 3.621094 -3.488281 3.621094 -3.554688 C 3.640625 -3.6875 3.664062 -3.773438 3.707031 -3.816406 C 3.75 -3.863281 3.816406 -3.90625 3.882812 -3.90625 L 8.851562 -3.90625 C 9.621094 -3.90625 10.152344 -3.929688 10.4375 -3.972656 C 10.878906 -4.039062 11.1875 -4.171875 11.386719 -4.347656 C 11.566406 -4.523438 11.71875 -4.832031 11.808594 -5.253906 C 11.894531 -5.5625 11.984375 -6.136719 12.09375 -7.019531 L 12.226562 -7.835938 C 12.316406 -8.539062 12.382812 -9.003906 12.402344 -9.269531 C 12.425781 -9.445312 12.425781 -9.601562 12.425781 -9.734375 C 12.425781 -10.175781 12.335938 -10.484375 12.117188 -10.636719 C 11.941406 -10.792969 11.609375 -10.878906 11.125 -10.902344 C 10.859375 -10.925781 10.328125 -10.925781 9.535156 -10.925781 Z M 4.765625 -7.835938 L 9.070312 -7.835938 C 9.046875 -7.570312 9.027344 -7.414062 9.003906 -7.328125 C 9.003906 -7.238281 8.980469 -7.171875 8.9375 -7.128906 C 8.894531 -7.085938 8.804688 -7.039062 8.671875 -7.019531 L 4.105469 -7.019531 C 4.148438 -7.28125 4.171875 -7.4375 4.171875 -7.503906 C 4.214844 -7.613281 4.238281 -7.65625 4.257812 -7.703125 C 4.304688 -7.746094 4.347656 -7.789062 4.390625 -7.8125 C 4.4375 -7.835938 4.570312 -7.835938 4.765625 -7.835938 Z M 4.765625 -7.835938 "/></g></g></g><g fill="#000000" fill-opacity="1"><g transform="translate(69.958704, 21.722119)"><g/></g></g><g fill="#000000" fill-opacity="1"><g transform="translate(76.57774, 21.722119)"><g><path d="M 1.324219 -15.449219 C 1.5 -15.226562 1.632812 -15.074219 1.699219 -14.984375 C 1.808594 -14.851562 1.875 -14.742188 1.921875 -14.652344 C 1.964844 -14.566406 1.984375 -14.5 1.984375 -14.390625 L 1.984375 -14.300781 C 1.984375 -14.257812 1.984375 -14.167969 1.964844 -14.035156 L 1.523438 -10.925781 L 1.082031 -7.835938 L 0.417969 -3.113281 C 0.285156 -2.140625 0.21875 -1.5 0.21875 -1.191406 C 0.21875 -0.949219 0.265625 -0.75 0.308594 -0.597656 C 0.441406 -0.332031 0.707031 -0.175781 1.101562 -0.0898438 C 1.414062 -0.0429688 2.097656 0 3.132812 0 L 7.988281 0 C 8.894531 0 9.488281 -0.0234375 9.777344 -0.0429688 C 10.261719 -0.0898438 10.59375 -0.21875 10.792969 -0.398438 C 10.96875 -0.550781 11.101562 -0.792969 11.1875 -1.101562 C 11.300781 -1.414062 11.433594 -2.074219 11.566406 -3.113281 L 12.226562 -7.835938 C 12.335938 -8.628906 12.402344 -9.179688 12.402344 -9.445312 C 12.425781 -9.554688 12.425781 -9.644531 12.425781 -9.734375 C 12.425781 -10.109375 12.359375 -10.371094 12.226562 -10.527344 C 12.09375 -10.726562 11.761719 -10.859375 11.277344 -10.902344 C 11.011719 -10.925781 10.527344 -10.925781 9.84375 -10.925781 L 4.65625 -10.925781 C 4.789062 -11.761719 4.855469 -12.359375 4.898438 -12.667969 C 4.945312 -13.152344 4.964844 -13.527344 4.964844 -13.816406 C 4.964844 -14.367188 4.855469 -14.765625 4.632812 -14.984375 C 4.503906 -15.160156 4.257812 -15.273438 3.929688 -15.339844 C 3.707031 -15.382812 3.441406 -15.425781 3.113281 -15.425781 C 2.824219 -15.449219 2.363281 -15.449219 1.699219 -15.449219 Z M 4.214844 -7.835938 L 8.34375 -7.835938 C 8.5625 -7.835938 8.695312 -7.835938 8.761719 -7.8125 C 8.894531 -7.8125 8.960938 -7.769531 8.980469 -7.703125 C 9.027344 -7.65625 9.027344 -7.613281 9.027344 -7.527344 C 9.027344 -7.460938 9.027344 -7.304688 8.980469 -7.039062 L 8.429688 -3.113281 L 4.347656 -3.113281 C 4.082031 -3.113281 3.929688 -3.132812 3.839844 -3.132812 C 3.75 -3.15625 3.6875 -3.199219 3.664062 -3.246094 C 3.640625 -3.289062 3.621094 -3.355469 3.621094 -3.421875 C 3.621094 -3.507812 3.640625 -3.664062 3.6875 -3.929688 Z M 4.214844 -7.835938 "/></g></g></g><g fill="#000000" fill-opacity="1"><g transform="translate(89.198022, 21.722119)"><g><path d="M 5.515625 -15.472656 C 4.457031 -15.472656 3.773438 -15.449219 3.464844 -15.382812 C 3.132812 -15.339844 2.867188 -15.226562 2.691406 -15.050781 C 2.515625 -14.875 2.363281 -14.589844 2.25 -14.191406 C 2.183594 -13.902344 2.074219 -13.285156 1.941406 -12.359375 L 1.457031 -8.761719 L 1.015625 -5.714844 L 0.441406 -1.609375 C 0.417969 -1.433594 0.398438 -1.300781 0.375 -1.214844 C 0.351562 -1.125 0.308594 -1.058594 0.265625 -0.972656 C 0.21875 -0.882812 0.109375 -0.75 -0.0429688 -0.597656 C -0.132812 -0.507812 -0.332031 -0.332031 -0.660156 -0.0234375 L 0.375 -0.0234375 C 1.347656 -0.0234375 1.984375 -0.0429688 2.296875 -0.0898438 C 2.671875 -0.175781 2.933594 -0.308594 3.113281 -0.484375 C 3.289062 -0.683594 3.421875 -0.992188 3.507812 -1.433594 C 3.597656 -1.722656 3.6875 -2.273438 3.796875 -3.089844 L 4.4375 -7.679688 L 5.054688 -12.09375 Z M 5.515625 -15.472656 "/></g></g></g><g fill="#000000" fill-opacity="1"><g transform="translate(94.272617, 21.722119)"><g><path d="M 10.0625 -10.945312 L 1.523438 -10.945312 L 1.523438 -10.570312 C 1.523438 -9.996094 1.542969 -9.554688 1.542969 -9.292969 C 1.589844 -8.804688 1.675781 -8.476562 1.808594 -8.277344 C 1.964844 -8.078125 2.230469 -7.945312 2.625 -7.878906 C 2.890625 -7.855469 3.441406 -7.835938 4.238281 -7.835938 L 9.09375 -7.835938 C 9.070312 -7.59375 9.046875 -7.4375 9.027344 -7.347656 C 9.027344 -7.261719 9.003906 -7.195312 8.960938 -7.152344 C 8.917969 -7.105469 8.851562 -7.0625 8.761719 -7.039062 C 8.71875 -7.039062 8.585938 -7.019531 8.410156 -7.019531 L 3.796875 -7.019531 C 2.980469 -7.019531 2.40625 -6.996094 2.097656 -6.953125 C 1.722656 -6.90625 1.433594 -6.773438 1.234375 -6.578125 C 1.058594 -6.398438 0.90625 -6.046875 0.792969 -5.515625 C 0.75 -5.253906 0.660156 -4.722656 0.550781 -3.929688 L 0.417969 -3.113281 C 0.308594 -2.230469 0.242188 -1.632812 0.21875 -1.324219 L 0.21875 -1.191406 C 0.21875 -0.839844 0.265625 -0.597656 0.398438 -0.417969 C 0.53125 -0.265625 0.75 -0.15625 1.058594 -0.0898438 C 1.367188 -0.0429688 2.050781 0 3.113281 0 L 7.902344 0 C 9.003906 0 9.710938 -0.0429688 10.019531 -0.0898438 C 10.328125 -0.15625 10.570312 -0.242188 10.746094 -0.375 C 10.945312 -0.53125 11.101562 -0.773438 11.1875 -1.082031 C 11.300781 -1.390625 11.433594 -2.050781 11.566406 -3.113281 L 11.875 -5.363281 L 12.226562 -7.835938 C 12.335938 -8.628906 12.402344 -9.160156 12.402344 -9.421875 C 12.425781 -9.554688 12.425781 -9.644531 12.425781 -9.734375 C 12.425781 -10.195312 12.316406 -10.503906 12.09375 -10.660156 C 11.960938 -10.769531 11.742188 -10.835938 11.433594 -10.878906 C 11.167969 -10.925781 10.703125 -10.945312 10.0625 -10.945312 Z M 4.191406 -3.929688 L 8.539062 -3.929688 C 8.519531 -3.6875 8.496094 -3.53125 8.476562 -3.441406 C 8.453125 -3.355469 8.429688 -3.265625 8.386719 -3.222656 C 8.363281 -3.179688 8.320312 -3.15625 8.230469 -3.132812 C 8.1875 -3.132812 8.054688 -3.113281 7.878906 -3.113281 L 3.554688 -3.113281 C 3.597656 -3.289062 3.621094 -3.421875 3.621094 -3.488281 C 3.640625 -3.664062 3.664062 -3.773438 3.707031 -3.816406 C 3.75 -3.863281 3.796875 -3.90625 3.863281 -3.90625 C 3.90625 -3.929688 4.015625 -3.929688 4.191406 -3.929688 Z M 4.191406 -3.929688 "/></g></g></g><g fill="#000000" fill-opacity="1"><g transform="translate(106.8929, 21.722119)"><g><path d="M 4.371094 -10.925781 C 3.574219 -10.925781 3.023438 -10.902344 2.714844 -10.859375 C 2.316406 -10.8125 2.03125 -10.703125 1.832031 -10.527344 C 1.632812 -10.351562 1.480469 -10.019531 1.367188 -9.554688 C 1.324219 -9.269531 1.234375 -8.695312 1.101562 -7.8125 C 1.039062 -7.28125 0.925781 -6.511719 0.773438 -5.453125 C 0.640625 -4.390625 0.53125 -3.621094 0.441406 -3.089844 C 0.308594 -2.230469 0.242188 -1.65625 0.21875 -1.347656 L 0.21875 -1.191406 C 0.21875 -0.882812 0.285156 -0.640625 0.375 -0.464844 C 0.507812 -0.285156 0.726562 -0.15625 1.039062 -0.0898438 C 1.347656 -0.0429688 2.03125 0 3.089844 0 L 8.035156 0 C 8.9375 0 9.535156 -0.0234375 9.820312 -0.0429688 C 10.261719 -0.0898438 10.59375 -0.199219 10.792969 -0.351562 C 11.011719 -0.53125 11.167969 -0.839844 11.253906 -1.234375 C 11.34375 -1.542969 11.433594 -2.164062 11.566406 -3.089844 L 3.574219 -3.089844 L 4.128906 -7.019531 C 4.171875 -7.238281 4.191406 -7.371094 4.191406 -7.460938 C 4.238281 -7.59375 4.28125 -7.679688 4.324219 -7.722656 C 4.371094 -7.769531 4.4375 -7.789062 4.523438 -7.789062 C 4.570312 -7.8125 4.679688 -7.835938 4.8125 -7.835938 C 4.898438 -7.835938 5.011719 -7.8125 5.140625 -7.8125 L 9.09375 -7.8125 C 9.929688 -7.835938 10.484375 -7.855469 10.769531 -7.855469 C 11.300781 -7.902344 11.695312 -8.035156 11.917969 -8.230469 C 12.117188 -8.410156 12.269531 -8.71875 12.359375 -9.136719 C 12.445312 -9.445312 12.535156 -10.042969 12.667969 -10.925781 Z M 4.371094 -10.925781 "/></g></g></g><g fill="#000000" fill-opacity="1"><g transform="translate(119.424935, 21.722119)"><g><path d="M 2.339844 -15.449219 L 1.921875 -12.359375 L 1.722656 -10.945312 L 1.28125 -7.835938 L 1.167969 -7.019531 L 0.726562 -3.929688 L 0.617188 -3.113281 L 0.398438 -1.589844 C 0.375 -1.390625 0.351562 -1.257812 0.351562 -1.167969 C 0.332031 -1.058594 0.285156 -0.972656 0.242188 -0.882812 C 0.199219 -0.773438 0.109375 -0.660156 -0.0234375 -0.53125 C -0.109375 -0.441406 -0.308594 -0.265625 -0.660156 0 L 0.285156 0 C 1.433594 0 2.164062 -0.0429688 2.472656 -0.132812 C 2.78125 -0.21875 3 -0.375 3.15625 -0.597656 C 3.308594 -0.816406 3.421875 -1.148438 3.507812 -1.609375 C 3.574219 -1.875 3.664062 -2.382812 3.75 -3.113281 L 3.863281 -3.929688 L 8.71875 -3.929688 L 8.605469 -3.113281 L 8.164062 0 C 9.269531 0 9.953125 -0.0429688 10.261719 -0.0898438 C 10.617188 -0.175781 10.859375 -0.285156 11.035156 -0.464844 C 11.210938 -0.640625 11.367188 -0.949219 11.453125 -1.347656 C 11.542969 -1.65625 11.628906 -2.230469 11.742188 -3.113281 L 11.851562 -3.929688 C 11.875 -4.039062 11.894531 -4.148438 11.894531 -4.257812 C 11.894531 -4.324219 11.875 -4.390625 11.875 -4.457031 C 11.875 -4.632812 11.828125 -4.765625 11.785156 -4.878906 C 11.742188 -5.03125 11.652344 -5.164062 11.542969 -5.253906 C 11.433594 -5.363281 11.277344 -5.453125 11.101562 -5.496094 C 11.300781 -5.5625 11.453125 -5.628906 11.585938 -5.714844 C 11.71875 -5.804688 11.808594 -5.894531 11.894531 -6.003906 C 11.984375 -6.136719 12.070312 -6.269531 12.117188 -6.421875 C 12.203125 -6.597656 12.25 -6.796875 12.292969 -7.019531 L 12.84375 -10.945312 L 12.800781 -10.945312 C 11.71875 -10.945312 11.011719 -10.925781 10.703125 -10.859375 C 10.328125 -10.792969 10.042969 -10.636719 9.863281 -10.394531 C 9.734375 -10.195312 9.601562 -9.863281 9.511719 -9.421875 C 9.46875 -9.160156 9.378906 -8.628906 9.269531 -7.855469 L 9.160156 -7.019531 L 4.304688 -7.019531 L 4.414062 -7.835938 L 4.855469 -10.945312 L 5.054688 -12.335938 C 5.140625 -13.066406 5.207031 -13.550781 5.230469 -13.816406 C 5.253906 -13.992188 5.253906 -14.125 5.253906 -14.257812 C 5.253906 -14.566406 5.207031 -14.785156 5.121094 -14.941406 C 5.011719 -15.183594 4.746094 -15.339844 4.324219 -15.382812 C 4.039062 -15.425781 3.375 -15.449219 2.339844 -15.449219 Z M 2.339844 -15.449219 "/></g></g></g><g fill="#000000" fill-opacity="1"><g transform="translate(132.133474, 21.722119)"><g><path d="M 10.175781 -15.449219 C 9.113281 -15.449219 8.410156 -15.425781 8.078125 -15.359375 C 7.769531 -15.316406 7.503906 -15.207031 7.328125 -15.03125 C 7.152344 -14.851562 6.996094 -14.523438 6.886719 -14.058594 C 6.839844 -13.792969 6.730469 -13.21875 6.597656 -12.359375 L 6.53125 -11.761719 L 9.667969 -11.761719 L 9.734375 -12.359375 Z M 6.398438 -10.945312 L 5.429688 -3.90625 C 5.40625 -3.6875 5.386719 -3.554688 5.339844 -3.464844 C 5.339844 -3.375 5.296875 -3.289062 5.253906 -3.246094 C 5.207031 -3.199219 5.140625 -3.15625 5.03125 -3.132812 C 4.964844 -3.132812 4.8125 -3.113281 4.546875 -3.113281 L 1.964844 -3.113281 C 1.808594 -3.113281 1.699219 -3.132812 1.609375 -3.132812 C 1.523438 -3.15625 1.433594 -3.179688 1.347656 -3.222656 C 1.257812 -3.289062 1.167969 -3.375 1.058594 -3.464844 C 0.972656 -3.554688 0.816406 -3.730469 0.574219 -3.949219 L 0.417969 -2.933594 C 0.332031 -2.316406 0.265625 -1.855469 0.242188 -1.566406 C 0.242188 -1.433594 0.21875 -1.300781 0.21875 -1.191406 C 0.21875 -0.925781 0.265625 -0.707031 0.351562 -0.53125 C 0.484375 -0.285156 0.773438 -0.132812 1.234375 -0.0664062 C 1.542969 -0.0234375 2.074219 0 2.867188 0 L 5.164062 0 C 5.957031 0 6.488281 -0.0234375 6.796875 -0.0664062 C 7.328125 -0.132812 7.679688 -0.308594 7.855469 -0.597656 C 8.011719 -0.816406 8.121094 -1.148438 8.210938 -1.632812 C 8.277344 -1.898438 8.363281 -2.40625 8.453125 -3.113281 L 9.535156 -10.945312 Z M 6.398438 -10.945312 "/></g></g></g><g fill="#000000" fill-opacity="1"><g transform="translate(141.863447, 21.722119)"><g><path d="M 10.0625 -10.945312 L 1.523438 -10.945312 L 1.523438 -10.570312 C 1.523438 -9.996094 1.542969 -9.554688 1.542969 -9.292969 C 1.589844 -8.804688 1.675781 -8.476562 1.808594 -8.277344 C 1.964844 -8.078125 2.230469 -7.945312 2.625 -7.878906 C 2.890625 -7.855469 3.441406 -7.835938 4.238281 -7.835938 L 9.09375 -7.835938 C 9.070312 -7.59375 9.046875 -7.4375 9.027344 -7.347656 C 9.027344 -7.261719 9.003906 -7.195312 8.960938 -7.152344 C 8.917969 -7.105469 8.851562 -7.0625 8.761719 -7.039062 C 8.71875 -7.039062 8.585938 -7.019531 8.410156 -7.019531 L 3.796875 -7.019531 C 2.980469 -7.019531 2.40625 -6.996094 2.097656 -6.953125 C 1.722656 -6.90625 1.433594 -6.773438 1.234375 -6.578125 C 1.058594 -6.398438 0.90625 -6.046875 0.792969 -5.515625 C 0.75 -5.253906 0.660156 -4.722656 0.550781 -3.929688 L 0.417969 -3.113281 C 0.308594 -2.230469 0.242188 -1.632812 0.21875 -1.324219 L 0.21875 -1.191406 C 0.21875 -0.839844 0.265625 -0.597656 0.398438 -0.417969 C 0.53125 -0.265625 0.75 -0.15625 1.058594 -0.0898438 C 1.367188 -0.0429688 2.050781 0 3.113281 0 L 7.902344 0 C 9.003906 0 9.710938 -0.0429688 10.019531 -0.0898438 C 10.328125 -0.15625 10.570312 -0.242188 10.746094 -0.375 C 10.945312 -0.53125 11.101562 -0.773438 11.1875 -1.082031 C 11.300781 -1.390625 11.433594 -2.050781 11.566406 -3.113281 L 11.875 -5.363281 L 12.226562 -7.835938 C 12.335938 -8.628906 12.402344 -9.160156 12.402344 -9.421875 C 12.425781 -9.554688 12.425781 -9.644531 12.425781 -9.734375 C 12.425781 -10.195312 12.316406 -10.503906 12.09375 -10.660156 C 11.960938 -10.769531 11.742188 -10.835938 11.433594 -10.878906 C 11.167969 -10.925781 10.703125 -10.945312 10.0625 -10.945312 Z M 4.191406 -3.929688 L 8.539062 -3.929688 C 8.519531 -3.6875 8.496094 -3.53125 8.476562 -3.441406 C 8.453125 -3.355469 8.429688 -3.265625 8.386719 -3.222656 C 8.363281 -3.179688 8.320312 -3.15625 8.230469 -3.132812 C 8.1875 -3.132812 8.054688 -3.113281 7.878906 -3.113281 L 3.554688 -3.113281 C 3.597656 -3.289062 3.621094 -3.421875 3.621094 -3.488281 C 3.640625 -3.664062 3.664062 -3.773438 3.707031 -3.816406 C 3.75 -3.863281 3.796875 -3.90625 3.863281 -3.90625 C 3.90625 -3.929688 4.015625 -3.929688 4.191406 -3.929688 Z M 4.191406 -3.929688 "/></g></g></g><g fill="#000000" fill-opacity="1"><g transform="translate(154.483729, 21.722119)"><g><path d="M 4.371094 -10.925781 C 3.574219 -10.925781 3.023438 -10.902344 2.714844 -10.859375 C 2.316406 -10.8125 2.03125 -10.703125 1.832031 -10.527344 C 1.632812 -10.351562 1.480469 -10.019531 1.367188 -9.554688 C 1.324219 -9.269531 1.234375 -8.695312 1.101562 -7.8125 C 1.039062 -7.28125 0.925781 -6.511719 0.773438 -5.453125 C 0.640625 -4.390625 0.53125 -3.621094 0.441406 -3.089844 C 0.308594 -2.230469 0.242188 -1.65625 0.21875 -1.347656 L 0.21875 -1.191406 C 0.21875 -0.882812 0.285156 -0.640625 0.375 -0.464844 C 0.507812 -0.285156 0.726562 -0.15625 1.039062 -0.0898438 C 1.347656 -0.0429688 2.03125 0 3.089844 0 L 8.035156 0 C 8.9375 0 9.535156 -0.0234375 9.820312 -0.0429688 C 10.261719 -0.0898438 10.59375 -0.199219 10.792969 -0.351562 C 11.011719 -0.53125 11.167969 -0.839844 11.253906 -1.234375 C 11.34375 -1.542969 11.433594 -2.164062 11.566406 -3.089844 L 3.574219 -3.089844 L 4.128906 -7.019531 C 4.171875 -7.238281 4.191406 -7.371094 4.191406 -7.460938 C 4.238281 -7.59375 4.28125 -7.679688 4.324219 -7.722656 C 4.371094 -7.769531 4.4375 -7.789062 4.523438 -7.789062 C 4.570312 -7.8125 4.679688 -7.835938 4.8125 -7.835938 C 4.898438 -7.835938 5.011719 -7.8125 5.140625 -7.8125 L 9.09375 -7.8125 C 9.929688 -7.835938 10.484375 -7.855469 10.769531 -7.855469 C 11.300781 -7.902344 11.695312 -8.035156 11.917969 -8.230469 C 12.117188 -8.410156 12.269531 -8.71875 12.359375 -9.136719 C 12.445312 -9.445312 12.535156 -10.042969 12.667969 -10.925781 Z M 4.371094 -10.925781 "/></g></g></g><g fill="#000000" fill-opacity="1"><g transform="translate(167.015765, 21.722119)"><g><path d="M 2.339844 -15.449219 L 1.921875 -12.359375 L 1.722656 -10.945312 L 1.28125 -7.835938 L 1.167969 -7.019531 L 0.726562 -3.929688 L 0.617188 -3.113281 L 0.398438 -1.589844 C 0.375 -1.390625 0.351562 -1.257812 0.351562 -1.167969 C 0.332031 -1.058594 0.285156 -0.972656 0.242188 -0.882812 C 0.199219 -0.773438 0.109375 -0.660156 -0.0234375 -0.53125 C -0.109375 -0.441406 -0.308594 -0.265625 -0.660156 0 L 0.285156 0 C 1.433594 0 2.164062 -0.0429688 2.472656 -0.132812 C 2.78125 -0.21875 3 -0.375 3.15625 -0.597656 C 3.308594 -0.816406 3.421875 -1.148438 3.507812 -1.609375 C 3.574219 -1.875 3.664062 -2.382812 3.75 -3.113281 L 3.863281 -3.929688 L 8.71875 -3.929688 L 8.605469 -3.113281 L 8.164062 0 C 9.269531 0 9.953125 -0.0429688 10.261719 -0.0898438 C 10.617188 -0.175781 10.859375 -0.285156 11.035156 -0.464844 C 11.210938 -0.640625 11.367188 -0.949219 11.453125 -1.347656 C 11.542969 -1.65625 11.628906 -2.230469 11.742188 -3.113281 L 11.851562 -3.929688 C 11.875 -4.039062 11.894531 -4.148438 11.894531 -4.257812 C 11.894531 -4.324219 11.875 -4.390625 11.875 -4.457031 C 11.875 -4.632812 11.828125 -4.765625 11.785156 -4.878906 C 11.742188 -5.03125 11.652344 -5.164062 11.542969 -5.253906 C 11.433594 -5.363281 11.277344 -5.453125 11.101562 -5.496094 C 11.300781 -5.5625 11.453125 -5.628906 11.585938 -5.714844 C 11.71875 -5.804688 11.808594 -5.894531 11.894531 -6.003906 C 11.984375 -6.136719 12.070312 -6.269531 12.117188 -6.421875 C 12.203125 -6.597656 12.25 -6.796875 12.292969 -7.019531 L 12.84375 -10.945312 L 12.800781 -10.945312 C 11.71875 -10.945312 11.011719 -10.925781 10.703125 -10.859375 C 10.328125 -10.792969 10.042969 -10.636719 9.863281 -10.394531 C 9.734375 -10.195312 9.601562 -9.863281 9.511719 -9.421875 C 9.46875 -9.160156 9.378906 -8.628906 9.269531 -7.855469 L 9.160156 -7.019531 L 4.304688 -7.019531 L 4.414062 -7.835938 L 4.855469 -10.945312 L 5.054688 -12.335938 C 5.140625 -13.066406 5.207031 -13.550781 5.230469 -13.816406 C 5.253906 -13.992188 5.253906 -14.125 5.253906 -14.257812 C 5.253906 -14.566406 5.207031 -14.785156 5.121094 -14.941406 C 5.011719 -15.183594 4.746094 -15.339844 4.324219 -15.382812 C 4.039062 -15.425781 3.375 -15.449219 2.339844 -15.449219 Z M 2.339844 -15.449219 "/></g></g></g><path stroke-linecap="butt" transform="matrix(0.655857, 0, 0, 0.655857, 4.8712, 6.317919)" fill="none" stroke-linejoin="miter" d="M 6.789619 10.057289 C 6.724103 10.664796 6.616896 11.736867 6.348878 13.4224 C 6.116596 15.066242 5.914094 16.346771 5.783063 17.252075 C 5.610341 18.502824 5.50909 19.336657 5.47931 19.783353 L 5.47931 20.182402 C 5.47931 20.652921 5.574605 21.02219 5.717548 21.296164 C 5.914094 21.564182 6.247627 21.760728 6.789619 21.867935 C 7.260138 21.93345 8.207134 21.998966 9.648474 21.998966 L 17.552017 21.998966 C 19.07674 21.998966 20.053515 21.93345 20.518079 21.867935 C 21.161322 21.730948 21.596106 21.498666 21.864124 21.087706 C 22.066626 20.789908 22.239348 20.313432 22.370379 19.705926 C 22.465674 19.271141 22.608617 18.467088 22.769428 17.252075 L 23.781939 10.057289 C 23.984441 8.770805 24.085692 7.901236 24.085692 7.502188 L 24.085692 7.162699 C 24.085692 6.656443 24.020177 6.281218 23.847454 6.04298 C 23.680688 5.780919 23.376935 5.578416 22.977886 5.512901 C 22.507366 5.38187 21.465075 5.340178 19.815277 5.340178 L 12.072545 5.340178 C 10.7265 5.340178 9.81524 5.340178 9.34472 5.41165 C 8.671698 5.477165 8.207134 5.673712 7.903381 6.013201 C 7.563892 6.35269 7.295874 7.025712 7.093372 8.068003 C 7.021901 8.401536 6.920649 9.074558 6.789619 10.057289 Z M 13.216087 10.057289 L 19.005268 10.057289 L 18.159524 16.043018 C 18.094008 16.448022 18.064229 16.68626 17.998713 16.817291 C 17.998713 16.954278 17.921286 17.055529 17.85577 17.121044 C 17.790255 17.18656 17.69496 17.216339 17.552017 17.252075 L 10.553778 17.252075 L 11.399523 11.296127 C 11.435258 11.09958 11.465038 10.926858 11.465038 10.861343 C 11.530553 10.557589 11.596069 10.361043 11.673496 10.295527 C 11.768791 10.18832 11.935558 10.122805 12.13806 10.087069 C 12.304827 10.057289 12.680051 10.057289 13.216087 10.057289 Z M 26.402556 10.087069 L 26.229834 11.296127 L 25.556812 16.043018 L 25.396001 17.293767 L 25.056512 19.64041 C 25.026732 19.979899 24.990997 20.218137 24.925481 20.349168 C 24.883789 20.486155 24.818274 20.587406 24.752759 20.718437 C 24.651507 20.855424 24.478785 21.02219 24.216723 21.260428 C 24.079736 21.391459 23.805763 21.629697 23.370979 21.998966 L 24.925481 21.998966 C 26.229834 21.998966 27.111314 21.969186 27.575878 21.93345 C 28.320372 21.838155 28.826627 21.629697 29.130381 21.296164 C 29.392442 20.956675 29.63068 20.456375 29.761711 19.747617 C 29.868918 19.306877 29.999949 18.502824 30.172672 17.293767 L 30.339438 16.043018 L 31.01246 11.296127 C 31.077976 10.926858 31.113711 10.694576 31.113711 10.587369 C 31.179227 10.390823 31.286434 10.253836 31.351949 10.18832 C 31.417465 10.122805 31.548496 10.087069 31.685482 10.087069 C 31.750998 10.057289 31.852249 10.057289 31.989236 10.057289 C 32.120267 10.057289 32.251297 10.057289 32.42402 10.087069 L 38.588426 10.087069 L 38.415704 11.296127 L 37.742682 16.043018 L 37.575915 17.293767 L 36.902893 21.998966 C 38.588426 21.998966 39.666453 21.93345 40.131017 21.867935 C 40.708744 21.730948 41.107793 21.534402 41.369854 21.230648 C 41.578313 20.956675 41.751035 20.587406 41.882066 20.045415 C 42.013097 19.610631 42.150084 18.705326 42.352586 17.293767 L 42.525308 16.043018 L 43.19833 11.296127 L 43.359141 10.087069 C 43.567599 8.609994 43.662894 7.633219 43.662894 7.198434 C 43.662894 6.453941 43.502084 5.977465 43.162595 5.751139 C 42.894577 5.542681 42.382366 5.41165 41.673608 5.38187 C 41.340075 5.340178 40.869555 5.340178 40.262048 5.340178 L 30.809958 5.340178 C 29.839138 5.340178 29.130381 5.38187 28.68964 5.447386 C 28.08809 5.512901 27.611614 5.751139 27.33764 6.120408 C 27.111314 6.382469 26.902856 6.894681 26.771825 7.567703 C 26.70631 7.966752 26.569323 8.80654 26.402556 10.087069 Z M 52.376447 -1.586589 C 50.756429 -1.586589 49.714138 -1.550854 49.243618 -1.455559 C 48.743318 -1.390043 48.332358 -1.217321 48.070296 -0.943347 C 47.796323 -0.681285 47.558085 -0.240545 47.397274 0.361006 C 47.296023 0.801746 47.1233 1.742786 46.920798 3.154345 L 46.182261 8.639774 L 45.509238 13.285413 L 44.633714 19.545115 C 44.603934 19.813133 44.568199 20.009679 44.538419 20.152622 C 44.502683 20.283653 44.431212 20.378948 44.365696 20.521891 C 44.300181 20.652921 44.127458 20.855424 43.895176 21.087706 C 43.75819 21.230648 43.460392 21.498666 42.954137 21.969186 L 44.538419 21.969186 C 46.015494 21.969186 46.99227 21.93345 47.462789 21.867935 C 48.03456 21.730948 48.439565 21.534402 48.707583 21.260428 C 48.9756 20.956675 49.178103 20.486155 49.309133 19.813133 C 49.452076 19.378349 49.583107 18.532604 49.75583 17.293767 L 50.720693 10.295527 L 51.667689 3.55935 Z M 60.113224 -1.550854 C 58.564677 -1.550854 57.522386 -1.521074 57.01613 -1.455559 C 56.408624 -1.354307 55.97384 -1.11607 55.670086 -0.782536 C 55.437804 -0.508563 55.229346 -0.00826313 55.098315 0.664759 C 54.991108 1.069764 54.860077 1.915508 54.657575 3.184125 L 54.556324 4.101341 L 59.33895 4.101341 Z M 54.395513 5.304443 L 52.370491 19.545115 C 52.340711 19.878648 52.304975 20.087106 52.23946 20.218137 C 52.197768 20.378948 52.132253 20.55167 52.001222 20.718437 C 51.905927 20.855424 51.733204 21.02219 51.459231 21.296164 C 51.3282 21.427195 51.089962 21.665433 50.690913 21.998966 L 52.275196 21.998966 C 53.484253 21.998966 54.318086 21.969186 54.764782 21.93345 C 55.50332 21.867935 56.039355 21.665433 56.372888 21.361679 C 56.676641 21.057926 56.914879 20.55167 57.04591 19.848868 C 57.188853 19.414084 57.319884 18.56834 57.492606 17.293767 L 59.166228 5.304443 Z M 61.459268 10.087069 L 61.286545 11.296127 L 60.613523 16.043018 L 60.446757 17.293767 L 60.113224 19.64041 C 60.077488 19.979899 60.041752 20.218137 59.976237 20.349168 C 59.940501 20.486155 59.874986 20.587406 59.803514 20.718437 C 59.708219 20.855424 59.535497 21.02219 59.273435 21.260428 C 59.130492 21.391459 58.862474 21.629697 58.42769 21.998966 L 59.976237 21.998966 C 61.286545 21.998966 62.16207 21.969186 62.63259 21.93345 C 63.371127 21.838155 63.883339 21.629697 64.187092 21.296164 C 64.449154 20.956675 64.687392 20.456375 64.818423 19.747617 C 64.92563 19.306877 65.056661 18.502824 65.229383 17.293767 L 65.390194 16.043018 L 66.069172 11.296127 C 66.134687 10.926858 66.164467 10.694576 66.164467 10.587369 C 66.229982 10.390823 66.33719 10.253836 66.402705 10.18832 C 66.46822 10.122805 66.599251 10.087069 66.742194 10.087069 C 66.807709 10.057289 66.903005 10.057289 67.045947 10.057289 C 67.176978 10.057289 67.308009 10.057289 67.480732 10.087069 L 73.639182 10.087069 L 73.46646 11.296127 L 72.793438 16.043018 L 72.632627 17.293767 L 71.959605 21.998966 C 73.639182 21.998966 74.717209 21.93345 75.187729 21.867935 C 75.7595 21.730948 76.164504 21.534402 76.426566 21.230648 C 76.629068 20.956675 76.801791 20.587406 76.932822 20.045415 C 77.063852 19.610631 77.206795 18.705326 77.403341 17.293767 L 77.576064 16.043018 L 78.249086 11.296127 L 78.415853 10.087069 C 78.618355 8.609994 78.719606 7.633219 78.719606 7.198434 C 78.719606 6.453941 78.55284 5.977465 78.219306 5.751139 C 77.945333 5.542681 77.439077 5.41165 76.730319 5.38187 C 76.39083 5.340178 75.926266 5.340178 75.31876 5.340178 L 65.860714 5.340178 C 64.889894 5.340178 64.187092 5.38187 63.740396 5.447386 C 63.138845 5.512901 62.662369 5.751139 62.394352 6.120408 C 62.16207 6.382469 61.959568 6.894681 61.828537 7.567703 C 61.763021 7.966752 61.620079 8.80654 61.459268 10.087069 Z M 86.218145 5.340178 C 84.669598 5.340178 83.657087 5.340178 83.186567 5.41165 C 82.579061 5.477165 82.114497 5.673712 81.775008 5.977465 C 81.471254 6.281218 81.233016 6.829166 81.072206 7.633219 L 80.667201 10.057289 L 79.65469 17.252075 C 79.481967 18.598119 79.386672 19.4796 79.350937 19.914384 L 79.350937 20.182402 C 79.350937 20.617186 79.416452 20.956675 79.559395 21.230648 C 79.755941 21.534402 80.089474 21.730948 80.559994 21.867935 C 81.03647 21.93345 81.906038 21.998966 83.252083 21.998966 L 95.973988 21.998966 L 95.973988 21.427195 C 95.973988 20.456375 95.973988 19.747617 95.908473 19.336657 C 95.872737 18.633855 95.741706 18.133555 95.473689 17.859582 C 95.26523 17.585608 94.895962 17.424798 94.359926 17.359282 C 93.990657 17.293767 93.144913 17.252075 91.84056 17.252075 L 84.43136 17.252075 C 84.502832 16.924498 84.538568 16.68626 84.538568 16.585009 C 84.568347 16.382507 84.604083 16.251476 84.669598 16.174048 C 84.735114 16.108533 84.842321 16.043018 84.937616 16.043018 L 92.507626 16.043018 C 93.686904 16.043018 94.490957 16.013238 94.925741 15.947722 C 95.604719 15.840515 96.081195 15.643969 96.384949 15.369995 C 96.64701 15.101978 96.885248 14.631458 97.016279 13.988215 C 97.153266 13.523651 97.284297 12.642171 97.457019 11.296127 L 97.653566 10.057289 C 97.796508 8.979263 97.891804 8.270505 97.927539 7.871456 C 97.957319 7.597483 97.957319 7.359245 97.957319 7.162699 C 97.957319 6.489676 97.826288 6.013201 97.492755 5.780919 C 97.218781 5.542681 96.712526 5.41165 95.973988 5.38187 C 95.568984 5.340178 94.764931 5.340178 93.549917 5.340178 Z M 86.28366 10.057289 L 92.841159 10.057289 C 92.81138 10.456338 92.775644 10.694576 92.745864 10.825607 C 92.745864 10.96855 92.710129 11.063845 92.644613 11.12936 C 92.579098 11.194876 92.442111 11.260391 92.239609 11.296127 L 85.277105 11.296127 C 85.342621 10.891122 85.3724 10.664796 85.3724 10.557589 C 85.437916 10.390823 85.473651 10.325307 85.515343 10.253836 C 85.580858 10.18832 85.646374 10.122805 85.711889 10.087069 C 85.777405 10.057289 85.979907 10.057289 86.28366 10.057289 Z M 109.869216 -1.550854 C 110.137233 -1.217321 110.33378 -0.985039 110.435031 -0.848052 C 110.607753 -0.651506 110.703048 -0.478783 110.768564 -0.347752 C 110.845991 -0.204809 110.875771 -0.109514 110.875771 0.0572523 L 110.875771 0.194239 C 110.875771 0.259755 110.875771 0.390785 110.845991 0.599244 L 110.172969 5.340178 L 109.493991 10.057289 L 108.487436 17.252075 C 108.278977 18.741062 108.183682 19.705926 108.183682 20.182402 C 108.183682 20.55167 108.249198 20.855424 108.314713 21.087706 C 108.517215 21.498666 108.92222 21.730948 109.529727 21.867935 C 110.000246 21.93345 111.042537 21.998966 112.62682 21.998966 L 120.030063 21.998966 C 121.411843 21.998966 122.311192 21.969186 122.757888 21.93345 C 123.496425 21.867935 123.996725 21.665433 124.300478 21.391459 C 124.574452 21.159177 124.770998 20.789908 124.907985 20.313432 C 125.074752 19.848868 125.277254 18.836357 125.4738 17.252075 L 126.486311 10.057289 C 126.659034 8.83632 126.754329 8.002487 126.754329 7.597483 C 126.790065 7.42476 126.790065 7.293729 126.790065 7.162699 C 126.790065 6.590928 126.688814 6.185923 126.486311 5.947685 C 126.289765 5.643932 125.777554 5.447386 125.039016 5.38187 C 124.639967 5.340178 123.895474 5.340178 122.853183 5.340178 L 114.943684 5.340178 C 115.146186 4.065606 115.247437 3.154345 115.312952 2.683825 C 115.384424 1.945288 115.420159 1.373517 115.420159 0.938733 C 115.420159 0.0989439 115.247437 -0.508563 114.907948 -0.848052 C 114.711402 -1.11607 114.342133 -1.282836 113.835877 -1.390043 C 113.496388 -1.455559 113.09734 -1.521074 112.591084 -1.521074 C 112.150344 -1.550854 111.441586 -1.550854 110.435031 -1.550854 Z M 114.270661 10.057289 L 120.560143 10.057289 C 120.899632 10.057289 121.102134 10.057289 121.203385 10.087069 C 121.411843 10.087069 121.507139 10.152585 121.542874 10.253836 C 121.60839 10.325307 121.60839 10.390823 121.60839 10.521853 C 121.60839 10.629061 121.60839 10.861343 121.542874 11.260391 L 120.703086 17.252075 L 114.473164 17.252075 C 114.074115 17.252075 113.835877 17.216339 113.704846 17.216339 C 113.561904 17.18656 113.466608 17.121044 113.430873 17.055529 C 113.401093 16.990013 113.365357 16.882806 113.365357 16.781555 C 113.365357 16.650524 113.401093 16.412286 113.466608 16.013238 Z M 135.497661 -1.586589 C 133.883599 -1.586589 132.841308 -1.550854 132.370788 -1.455559 C 131.870489 -1.390043 131.459528 -1.217321 131.197466 -0.943347 C 130.923493 -0.681285 130.685255 -0.240545 130.524444 0.361006 C 130.423193 0.801746 130.250471 1.742786 130.047968 3.154345 L 129.303475 8.639774 L 128.630453 13.285413 L 127.760884 19.545115 C 127.731105 19.813133 127.695369 20.009679 127.665589 20.152622 C 127.629853 20.283653 127.558382 20.378948 127.492867 20.521891 C 127.427351 20.652921 127.254629 20.855424 127.022347 21.087706 C 126.88536 21.230648 126.587562 21.498666 126.075351 21.969186 L 127.665589 21.969186 C 129.142664 21.969186 130.11944 21.93345 130.58996 21.867935 C 131.161731 21.730948 131.566735 21.534402 131.834753 21.260428 C 132.096815 20.956675 132.305273 20.486155 132.436304 19.813133 C 132.573291 19.378349 132.704321 18.532604 132.877044 17.293767 L 133.847863 10.295527 L 134.794859 3.55935 Z M 150.173118 5.304443 L 137.147459 5.304443 L 137.147459 5.88217 C 137.147459 6.757694 137.183194 7.42476 137.183194 7.835721 C 137.24871 8.574258 137.379741 9.074558 137.588199 9.378311 C 137.826437 9.688021 138.225485 9.884567 138.827036 9.991774 C 139.237997 10.021554 140.077785 10.057289 141.280887 10.057289 L 148.690087 10.057289 C 148.654351 10.426558 148.618615 10.664796 148.588835 10.795827 C 148.588835 10.926858 148.5531 11.034065 148.487584 11.09958 C 148.422069 11.165096 148.314862 11.230611 148.183831 11.260391 C 148.118316 11.260391 147.909857 11.296127 147.647796 11.296127 L 140.619777 11.296127 C 139.369028 11.296127 138.487547 11.337818 138.022983 11.403334 C 137.445256 11.468849 137.010472 11.671351 136.706719 11.969149 C 136.444657 12.243123 136.206419 12.785114 136.033696 13.589167 C 135.968181 13.988215 135.83715 14.792268 135.664428 16.013238 L 135.467881 17.252075 C 135.295159 18.598119 135.193908 19.509379 135.164128 19.979899 L 135.164128 20.182402 C 135.164128 20.718437 135.229643 21.087706 135.432146 21.361679 C 135.628692 21.599917 135.968181 21.760728 136.444657 21.867935 C 136.909221 21.93345 137.957468 21.998966 139.57153 21.998966 L 146.867566 21.998966 C 148.5531 21.998966 149.631126 21.93345 150.107602 21.867935 C 150.572166 21.760728 150.941435 21.629697 151.215409 21.427195 C 151.519162 21.194913 151.751444 20.825644 151.888431 20.349168 C 152.055197 19.878648 152.2577 18.872093 152.454246 17.252075 L 152.930722 13.827405 L 153.466757 10.057289 C 153.63948 8.83632 153.734775 8.032267 153.734775 7.633219 C 153.77051 7.42476 153.77051 7.293729 153.77051 7.162699 C 153.77051 6.453941 153.603744 5.977465 153.270211 5.751139 C 153.061753 5.578416 152.72822 5.477165 152.2577 5.41165 C 151.852695 5.340178 151.149893 5.304443 150.173118 5.304443 Z M 141.215371 16.013238 L 147.844342 16.013238 C 147.814562 16.382507 147.778826 16.620744 147.749047 16.751775 C 147.713311 16.882806 147.683531 17.019793 147.606104 17.085308 C 147.576324 17.150824 147.510809 17.18656 147.379778 17.216339 C 147.314263 17.216339 147.105804 17.252075 146.837787 17.252075 L 140.238596 17.252075 C 140.316023 16.990013 140.345803 16.781555 140.345803 16.68626 C 140.381539 16.412286 140.411318 16.251476 140.476834 16.174048 C 140.542349 16.108533 140.619777 16.043018 140.715072 16.043018 C 140.780587 16.013238 140.947354 16.013238 141.215371 16.013238 Z M 160.733014 5.340178 C 159.523957 5.340178 158.678212 5.38187 158.207692 5.447386 C 157.600185 5.512901 157.165401 5.673712 156.861648 5.947685 C 156.557894 6.215703 156.319656 6.721958 156.15289 7.42476 C 156.087374 7.871456 155.950388 8.741025 155.753841 10.087069 C 155.65259 10.891122 155.479868 12.076356 155.24163 13.684462 C 155.045083 15.30448 154.872361 16.477802 154.74133 17.293767 C 154.538828 18.598119 154.437577 19.4796 154.401841 19.944164 L 154.401841 20.182402 C 154.401841 20.652921 154.503092 21.02219 154.640079 21.296164 C 154.842581 21.564182 155.176114 21.760728 155.65259 21.867935 C 156.12311 21.93345 157.165401 21.998966 158.773507 21.998966 L 166.319694 21.998966 C 167.695518 21.998966 168.600822 21.969186 169.041562 21.93345 C 169.72054 21.867935 170.22084 21.695212 170.524593 21.456975 C 170.858126 21.194913 171.096364 20.718437 171.227395 20.116886 C 171.358426 19.64041 171.501369 18.705326 171.697915 17.293767 L 159.523957 17.293767 L 160.357789 11.296127 C 160.429261 10.96855 160.45904 10.760091 160.45904 10.629061 C 160.524556 10.426558 160.596027 10.295527 160.667499 10.2181 C 160.733014 10.152585 160.828309 10.122805 160.971252 10.122805 C 161.036767 10.087069 161.197578 10.057289 161.406036 10.057289 C 161.537067 10.057289 161.70979 10.087069 161.906336 10.087069 L 167.933756 10.087069 C 169.208328 10.057289 170.054073 10.021554 170.488857 10.021554 C 171.29291 9.956038 171.900417 9.753536 172.239906 9.449783 C 172.543659 9.175809 172.775941 8.705289 172.912928 8.068003 C 173.043959 7.597483 173.186902 6.686223 173.383448 5.340178 Z M 176.742603 -1.550854 L 176.099361 3.154345 L 175.795607 5.304443 L 175.128541 10.057289 L 174.955819 11.296127 L 174.282796 16.013238 L 174.121986 17.252075 L 173.782497 19.574895 C 173.752717 19.878648 173.716981 20.087106 173.716981 20.218137 C 173.67529 20.378948 173.609774 20.521891 173.544259 20.652921 C 173.478743 20.825644 173.341757 20.992411 173.14521 21.194913 C 173.014179 21.325944 172.70447 21.599917 172.162479 21.998966 L 173.609774 21.998966 C 175.360823 21.998966 176.468629 21.93345 176.945105 21.796464 C 177.415625 21.665433 177.749158 21.427195 177.987396 21.087706 C 178.219678 20.754173 178.392401 20.247917 178.523432 19.545115 C 178.630639 19.140111 178.76167 18.371793 178.8927 17.252075 L 179.065423 16.013238 L 186.468667 16.013238 L 186.295944 17.252075 L 185.628878 21.998966 C 187.308455 21.998966 188.350746 21.93345 188.827222 21.867935 C 189.357302 21.730948 189.72657 21.564182 190.000544 21.296164 C 190.274518 21.02219 190.500844 20.55167 190.643786 19.944164 C 190.774817 19.4796 190.911804 18.598119 191.078571 17.252075 L 191.251293 16.013238 C 191.281073 15.840515 191.316809 15.673749 191.316809 15.501026 C 191.316809 15.405731 191.281073 15.30448 191.281073 15.203229 C 191.281073 14.935211 191.209601 14.726753 191.144086 14.565942 C 191.078571 14.327704 190.94754 14.131158 190.774817 13.988215 C 190.608051 13.827405 190.369813 13.684462 190.101795 13.618947 C 190.405548 13.523651 190.643786 13.4224 190.840333 13.285413 C 191.042835 13.154383 191.173866 13.01144 191.316809 12.850629 C 191.447839 12.642171 191.584826 12.445625 191.650342 12.207387 C 191.781372 11.933413 191.846888 11.62966 191.912403 11.296127 L 192.758148 5.304443 L 192.692633 5.304443 C 191.042835 5.304443 189.964808 5.340178 189.500244 5.447386 C 188.922517 5.542681 188.487733 5.780919 188.219715 6.150187 C 188.011257 6.453941 187.814711 6.960196 187.677724 7.633219 C 187.612209 8.032267 187.481178 8.83632 187.308455 10.021554 L 187.141689 11.296127 L 179.738445 11.296127 L 179.905212 10.057289 L 180.578234 5.304443 L 180.881987 3.184125 C 181.013018 2.076319 181.120225 1.337781 181.150005 0.938733 C 181.18574 0.664759 181.18574 0.468213 181.18574 0.259755 C 181.18574 -0.204809 181.120225 -0.544298 180.977282 -0.782536 C 180.816472 -1.151805 180.411467 -1.390043 179.774181 -1.455559 C 179.339396 -1.521074 178.326885 -1.550854 176.742603 -1.550854 Z M 208.064935 -1.550854 C 206.450873 -1.550854 205.378802 -1.521074 204.866591 -1.419823 C 204.402027 -1.354307 203.997022 -1.181585 203.723049 -0.913567 C 203.455031 -0.651506 203.216793 -0.139294 203.050027 0.563508 C 202.984511 0.968512 202.811789 1.849993 202.615242 3.154345 L 202.508035 4.065606 L 207.290662 4.065606 L 207.391913 3.154345 Z M 202.311489 5.304443 L 200.834414 16.043018 C 200.798678 16.382507 200.756987 16.585009 200.691471 16.71604 C 200.691471 16.847071 200.625956 16.990013 200.56044 17.055529 C 200.494925 17.121044 200.387718 17.18656 200.226907 17.216339 C 200.125656 17.216339 199.887418 17.252075 199.48837 17.252075 L 195.551488 17.252075 C 195.31325 17.252075 195.140527 17.216339 195.009496 17.216339 C 194.878466 17.18656 194.735523 17.150824 194.604492 17.085308 C 194.467505 16.990013 194.336474 16.847071 194.169708 16.71604 C 194.032721 16.585009 193.800439 16.316991 193.425214 15.977502 L 193.192932 17.520093 C 193.055945 18.467088 192.954694 19.175846 192.924915 19.610631 C 192.924915 19.813133 192.889179 20.009679 192.889179 20.182402 C 192.889179 20.587406 192.954694 20.920939 193.097637 21.194913 C 193.294183 21.564182 193.728968 21.796464 194.431769 21.903671 C 194.908245 21.969186 195.718254 21.998966 196.921356 21.998966 L 200.423453 21.998966 C 201.638467 21.998966 202.44252 21.969186 202.918996 21.903671 C 203.723049 21.796464 204.259084 21.534402 204.533058 21.087706 C 204.771296 20.754173 204.932106 20.247917 205.075049 19.509379 C 205.170344 19.110331 205.301375 18.336058 205.444318 17.252075 L 207.08816 5.304443 Z M 222.734436 5.304443 L 209.714733 5.304443 L 209.714733 5.88217 C 209.714733 6.757694 209.744513 7.42476 209.744513 7.835721 C 209.810028 8.574258 209.941059 9.074558 210.149517 9.378311 C 210.387755 9.688021 210.786803 9.884567 211.388354 9.991774 C 211.799315 10.021554 212.639103 10.057289 213.848161 10.057289 L 221.257361 10.057289 C 221.215669 10.426558 221.179933 10.664796 221.150153 10.795827 C 221.150153 10.926858 221.114418 11.034065 221.048902 11.09958 C 220.983387 11.165096 220.87618 11.230611 220.745149 11.260391 C 220.679634 11.260391 220.477131 11.296127 220.21507 11.296127 L 213.181095 11.296127 C 211.930346 11.296127 211.054821 11.337818 210.584301 11.403334 C 210.006574 11.468849 209.57179 11.671351 209.268037 11.969149 C 209.005975 12.243123 208.767737 12.785114 208.595014 13.589167 C 208.529499 13.988215 208.398468 14.792268 208.225746 16.013238 L 208.029199 17.252075 C 207.856477 18.598119 207.755226 19.509379 207.725446 19.979899 L 207.725446 20.182402 C 207.725446 20.718437 207.790961 21.087706 207.993464 21.361679 C 208.195966 21.599917 208.529499 21.760728 209.005975 21.867935 C 209.476495 21.93345 210.518786 21.998966 212.138804 21.998966 L 219.428884 21.998966 C 221.114418 21.998966 222.192444 21.93345 222.66892 21.867935 C 223.13944 21.760728 223.508709 21.629697 223.776727 21.427195 C 224.08048 21.194913 224.312762 20.825644 224.449749 20.349168 C 224.616515 19.878648 224.819018 18.872093 225.015564 17.252075 L 225.49204 13.827405 L 226.028075 10.057289 C 226.200798 8.83632 226.302049 8.032267 226.302049 7.633219 C 226.331829 7.42476 226.331829 7.293729 226.331829 7.162699 C 226.331829 6.453941 226.171018 5.977465 225.831529 5.751139 C 225.629027 5.578416 225.289538 5.477165 224.819018 5.41165 C 224.419969 5.340178 223.711211 5.304443 222.734436 5.304443 Z M 213.77669 16.013238 L 220.411616 16.013238 C 220.37588 16.382507 220.3461 16.620744 220.310365 16.751775 C 220.280585 16.882806 220.244849 17.019793 220.173378 17.085308 C 220.137642 17.150824 220.072127 17.18656 219.941096 17.216339 C 219.875581 17.216339 219.667122 17.252075 219.399105 17.252075 L 212.799914 17.252075 C 212.877341 16.990013 212.907121 16.781555 212.907121 16.68626 C 212.942857 16.412286 212.972636 16.251476 213.038152 16.174048 C 213.103667 16.108533 213.181095 16.043018 213.27639 16.043018 C 213.341905 16.013238 213.508672 16.013238 213.77669 16.013238 Z M 233.294332 5.340178 C 232.085275 5.340178 231.23953 5.38187 230.76901 5.447386 C 230.161503 5.512901 229.726719 5.673712 229.422966 5.947685 C 229.119212 6.215703 228.880974 6.721958 228.720164 7.42476 C 228.648692 7.871456 228.511706 8.741025 228.315159 10.087069 C 228.213908 10.891122 228.041186 12.076356 227.802948 13.684462 C 227.606401 15.30448 227.433679 16.477802 227.302648 17.293767 C 227.100146 18.598119 226.998895 19.4796 226.969115 19.944164 L 226.969115 20.182402 C 226.969115 20.652921 227.06441 21.02219 227.207353 21.296164 C 227.403899 21.564182 227.737432 21.760728 228.213908 21.867935 C 228.684428 21.93345 229.726719 21.998966 231.340781 21.998966 L 238.881012 21.998966 C 240.256836 21.998966 241.16214 21.969186 241.608836 21.93345 C 242.281858 21.867935 242.782158 21.695212 243.085911 21.456975 C 243.4254 21.194913 243.663638 20.718437 243.794669 20.116886 C 243.9257 19.64041 244.062687 18.705326 244.259233 17.293767 L 232.085275 17.293767 L 232.925063 11.296127 C 232.990579 10.96855 233.020358 10.760091 233.020358 10.629061 C 233.085874 10.426558 233.163301 10.295527 233.228817 10.2181 C 233.294332 10.152585 233.389627 10.122805 233.53257 10.122805 C 233.598085 10.087069 233.758896 10.057289 233.967354 10.057289 C 234.098385 10.057289 234.271108 10.087069 234.467654 10.087069 L 240.495074 10.087069 C 241.769646 10.057289 242.615391 10.021554 243.050175 10.021554 C 243.860184 9.956038 244.467691 9.753536 244.801224 9.449783 C 245.104978 9.175809 245.33726 8.705289 245.474246 8.068003 C 245.605277 7.597483 245.74822 6.686223 245.944766 5.340178 Z M 249.303921 -1.550854 L 248.660679 3.154345 L 248.356925 5.304443 L 247.695815 10.057289 L 247.523093 11.296127 L 246.85007 16.013238 L 246.683304 17.252075 L 246.343815 19.574895 C 246.314035 19.878648 246.278299 20.087106 246.278299 20.218137 C 246.236608 20.378948 246.171092 20.521891 246.105577 20.652921 C 246.040061 20.825644 245.903075 20.992411 245.706528 21.194913 C 245.575497 21.325944 245.271744 21.599917 244.729753 21.998966 L 246.171092 21.998966 C 247.922141 21.998966 249.029947 21.93345 249.506423 21.796464 C 249.976943 21.665433 250.316432 21.427195 250.55467 21.087706 C 250.780996 20.754173 250.953719 20.247917 251.08475 19.545115 C 251.191957 19.140111 251.322988 18.371793 251.454018 17.252075 L 251.626741 16.013238 L 259.029985 16.013238 L 258.857262 17.252075 L 258.190196 21.998966 C 259.869773 21.998966 260.912064 21.93345 261.38854 21.867935 C 261.924575 21.730948 262.293844 21.564182 262.561862 21.296164 C 262.835836 21.02219 263.062162 20.55167 263.205104 19.944164 C 263.336135 19.4796 263.473122 18.598119 263.639889 17.252075 L 263.812611 16.013238 C 263.842391 15.840515 263.878127 15.673749 263.878127 15.501026 C 263.878127 15.405731 263.842391 15.30448 263.842391 15.203229 C 263.842391 14.935211 263.770919 14.726753 263.705404 14.565942 C 263.639889 14.327704 263.508858 14.131158 263.336135 13.988215 C 263.169369 13.827405 262.931131 13.684462 262.663113 13.618947 C 262.966866 13.523651 263.205104 13.4224 263.401651 13.285413 C 263.604153 13.154383 263.735184 13.01144 263.878127 12.850629 C 264.009157 12.642171 264.146144 12.445625 264.217616 12.207387 C 264.348646 11.933413 264.414162 11.62966 264.479677 11.296127 L 265.325422 5.304443 L 265.259907 5.304443 C 263.604153 5.304443 262.532082 5.340178 262.061562 5.447386 C 261.489791 5.542681 261.049051 5.780919 260.781033 6.150187 C 260.572575 6.453941 260.376029 6.960196 260.239042 7.633219 C 260.173527 8.032267 260.042496 8.83632 259.869773 10.021554 L 259.703007 11.296127 L 252.299763 11.296127 L 252.46653 10.057289 L 253.139552 5.304443 L 253.443305 3.184125 C 253.574336 2.076319 253.681543 1.337781 253.717279 0.938733 C 253.747058 0.664759 253.747058 0.468213 253.747058 0.259755 C 253.747058 -0.204809 253.681543 -0.544298 253.544556 -0.782536 C 253.37779 -1.151805 252.978741 -1.390043 252.335499 -1.455559 C 251.900715 -1.521074 250.888203 -1.550854 249.303921 -1.550854 Z M 249.303921 -1.550854 " stroke="#000000" stroke-width="1.261875" stroke-opacity="1" stroke-miterlimit="4"/></svg>