<svg xmlns="http://www.w3.org/2000/svg" xmlns:xlink="http://www.w3.org/1999/xlink" width="250" zoomAndPan="magnify" viewBox="0 0 187.5 30.000001" height="40" preserveAspectRatio="xMidYMid meet" version="1.0"><defs><g/><clipPath id="b827f1f2ea"><path d="M 177 5 L 184.234375 5 L 184.234375 23 L 177 23 Z M 177 5 " clip-rule="nonzero"/></clipPath><clipPath id="2f1b8598be"><path d="M 2.78125 0 L 184.234375 0 L 184.234375 27 L 2.78125 27 Z M 2.78125 0 " clip-rule="nonzero"/></clipPath></defs><g fill="#000000" fill-opacity="1"><g transform="translate(5.551396, 22.542388)"><g><path d="M 0.707031 -12.113281 C 0.953125 -11.773438 1.125 -11.550781 1.195312 -11.40625 C 1.320312 -11.257812 1.390625 -11.113281 1.417969 -11.015625 C 1.464844 -10.917969 1.464844 -10.820312 1.464844 -10.699219 C 1.464844 -10.648438 1.464844 -10.527344 1.441406 -10.332031 L 1 -7.230469 L 0.464844 -3.445312 C 0.367188 -2.589844 0.292969 -2.003906 0.269531 -1.710938 C 0.269531 -1.585938 0.246094 -1.464844 0.246094 -1.34375 C 0.246094 -1 0.292969 -0.757812 0.390625 -0.5625 C 0.539062 -0.316406 0.855469 -0.171875 1.320312 -0.0742188 C 1.660156 -0.0234375 2.367188 0 3.445312 0 L 8.839844 0 C 9.769531 0 10.378906 -0.0234375 10.671875 -0.0507812 C 11.332031 -0.0976562 11.773438 -0.246094 12.015625 -0.488281 C 12.234375 -0.734375 12.40625 -1.097656 12.503906 -1.613281 C 12.578125 -1.929688 12.675781 -2.539062 12.796875 -3.445312 L 13.53125 -8.695312 C 13.675781 -9.769531 13.75 -10.476562 13.75 -10.796875 C 13.75 -11.285156 13.652344 -11.601562 13.433594 -11.773438 C 13.261719 -11.941406 12.945312 -12.039062 12.503906 -12.066406 C 12.1875 -12.113281 11.527344 -12.113281 10.527344 -12.113281 L 9.84375 -7.230469 L 9.304688 -3.445312 C 8.988281 -3.445312 8.769531 -3.46875 8.671875 -3.46875 C 8.574219 -3.515625 8.5 -3.542969 8.449219 -3.589844 C 8.425781 -3.664062 8.425781 -3.761719 8.425781 -3.882812 C 8.425781 -3.980469 8.449219 -4.128906 8.476562 -4.371094 L 9.085938 -8.71875 C 9.183594 -9.453125 9.230469 -9.941406 9.257812 -10.207031 C 9.28125 -10.40625 9.28125 -10.574219 9.28125 -10.722656 C 9.28125 -11.160156 9.230469 -11.453125 9.085938 -11.625 C 8.9375 -11.871094 8.621094 -12.015625 8.15625 -12.066406 C 7.839844 -12.113281 7.15625 -12.113281 6.105469 -12.113281 L 5.421875 -7.398438 L 4.882812 -3.445312 C 4.542969 -3.445312 4.324219 -3.46875 4.226562 -3.46875 C 4.128906 -3.515625 4.054688 -3.566406 4.03125 -3.664062 C 4.03125 -3.738281 4.003906 -3.835938 4.003906 -3.957031 C 4.03125 -4.03125 4.054688 -4.152344 4.054688 -4.324219 L 4.664062 -8.695312 C 4.835938 -9.769531 4.910156 -10.476562 4.910156 -10.820312 C 4.910156 -11.285156 4.8125 -11.601562 4.589844 -11.773438 C 4.445312 -11.917969 4.175781 -12.015625 3.835938 -12.066406 C 3.589844 -12.113281 3.25 -12.113281 2.785156 -12.113281 Z M 0.707031 -12.113281 "/></g></g></g><g fill="#000000" fill-opacity="1"><g transform="translate(19.517683, 22.542388)"><g><path d="M 1.660156 -17.097656 C 1.90625 -16.902344 2.074219 -16.777344 2.148438 -16.679688 C 2.296875 -16.535156 2.394531 -16.414062 2.441406 -16.316406 C 2.492188 -16.242188 2.492188 -16.121094 2.492188 -15.972656 C 2.492188 -15.925781 2.464844 -15.777344 2.417969 -15.558594 L 1.636719 -9.964844 L 0.734375 -3.445312 L 0.246094 0 L 0.464844 0 C 1.367188 0 1.976562 -0.0234375 2.320312 -0.0742188 C 2.808594 -0.121094 3.152344 -0.269531 3.371094 -0.464844 C 3.589844 -0.660156 3.761719 -1 3.859375 -1.464844 C 3.957031 -1.808594 4.054688 -2.464844 4.199219 -3.445312 L 4.933594 -8.671875 L 10.308594 -8.671875 L 9.574219 -3.445312 L 9.085938 0 L 9.328125 0 C 10.257812 0 10.894531 -0.0234375 11.234375 -0.0742188 C 11.820312 -0.171875 12.234375 -0.367188 12.429688 -0.683594 C 12.578125 -0.929688 12.699219 -1.269531 12.796875 -1.710938 C 12.847656 -2.003906 12.945312 -2.589844 13.042969 -3.445312 L 13.773438 -8.671875 C 13.921875 -9.597656 13.996094 -10.234375 13.996094 -10.527344 L 13.996094 -10.769531 C 13.996094 -11.210938 13.921875 -11.503906 13.773438 -11.675781 C 13.605469 -11.871094 13.285156 -12.015625 12.824219 -12.066406 C 12.527344 -12.113281 11.992188 -12.113281 11.210938 -12.113281 L 5.421875 -12.113281 L 5.640625 -13.652344 C 5.8125 -14.652344 5.910156 -15.3125 5.910156 -15.632812 C 5.933594 -15.730469 5.933594 -15.800781 5.933594 -15.851562 C 5.933594 -16.21875 5.863281 -16.484375 5.714844 -16.65625 C 5.617188 -16.804688 5.421875 -16.925781 5.128906 -16.972656 C 4.910156 -17.046875 4.589844 -17.097656 4.175781 -17.097656 Z M 1.660156 -17.097656 "/></g></g></g><g fill="#000000" fill-opacity="1"><g transform="translate(33.75256, 22.542388)"><g><path d="M 11.136719 -12.113281 L 1.683594 -12.113281 L 1.683594 -11.699219 C 1.683594 -11.0625 1.710938 -10.574219 1.710938 -10.28125 C 1.757812 -9.746094 1.855469 -9.378906 2.003906 -9.160156 C 2.171875 -8.9375 2.464844 -8.792969 2.90625 -8.71875 C 3.199219 -8.695312 3.808594 -8.671875 4.6875 -8.671875 L 10.0625 -8.671875 C 10.039062 -8.402344 10.011719 -8.230469 9.988281 -8.132812 C 9.988281 -8.035156 9.964844 -7.960938 9.914062 -7.914062 C 9.867188 -7.863281 9.792969 -7.816406 9.695312 -7.792969 C 9.648438 -7.792969 9.5 -7.765625 9.304688 -7.765625 L 4.199219 -7.765625 C 3.296875 -7.765625 2.664062 -7.742188 2.320312 -7.695312 C 1.90625 -7.644531 1.585938 -7.496094 1.367188 -7.277344 C 1.171875 -7.082031 1 -6.691406 0.878906 -6.105469 C 0.832031 -5.8125 0.734375 -5.226562 0.609375 -4.347656 L 0.464844 -3.445312 C 0.34375 -2.464844 0.269531 -1.808594 0.246094 -1.464844 L 0.246094 -1.320312 C 0.246094 -0.929688 0.292969 -0.660156 0.441406 -0.464844 C 0.585938 -0.292969 0.832031 -0.171875 1.171875 -0.0976562 C 1.515625 -0.0507812 2.269531 0 3.445312 0 L 8.742188 0 C 9.964844 0 10.746094 -0.0507812 11.089844 -0.0976562 C 11.429688 -0.171875 11.699219 -0.269531 11.894531 -0.414062 C 12.113281 -0.585938 12.285156 -0.855469 12.382812 -1.195312 C 12.503906 -1.539062 12.652344 -2.269531 12.796875 -3.445312 L 13.140625 -5.933594 L 13.53125 -8.671875 C 13.652344 -9.550781 13.726562 -10.136719 13.726562 -10.429688 C 13.75 -10.574219 13.75 -10.671875 13.75 -10.769531 C 13.75 -11.285156 13.628906 -11.625 13.382812 -11.796875 C 13.238281 -11.917969 12.992188 -11.992188 12.652344 -12.039062 C 12.359375 -12.089844 11.84375 -12.113281 11.136719 -12.113281 Z M 4.640625 -4.347656 L 9.453125 -4.347656 C 9.425781 -4.078125 9.402344 -3.90625 9.378906 -3.808594 C 9.355469 -3.710938 9.328125 -3.613281 9.28125 -3.566406 C 9.257812 -3.515625 9.207031 -3.492188 9.109375 -3.46875 C 9.0625 -3.46875 8.914062 -3.445312 8.71875 -3.445312 L 3.933594 -3.445312 C 3.980469 -3.640625 4.003906 -3.785156 4.003906 -3.859375 C 4.03125 -4.054688 4.054688 -4.175781 4.101562 -4.226562 C 4.152344 -4.273438 4.199219 -4.324219 4.273438 -4.324219 C 4.324219 -4.347656 4.445312 -4.347656 4.640625 -4.347656 Z M 4.640625 -4.347656 "/></g></g></g><g fill="#000000" fill-opacity="1"><g transform="translate(47.718847, 22.542388)"><g><path d="M 4.640625 -17.121094 C 4.882812 -16.925781 5.054688 -16.804688 5.128906 -16.707031 C 5.277344 -16.609375 5.347656 -16.484375 5.398438 -16.386719 C 5.445312 -16.316406 5.445312 -16.21875 5.445312 -16.09375 C 5.445312 -16.023438 5.445312 -15.875 5.421875 -15.632812 L 4.933594 -12.113281 L 4.421875 -12.113281 C 3.710938 -12.113281 3.199219 -12.113281 2.882812 -12.066406 C 2.464844 -12.015625 2.148438 -11.917969 1.90625 -11.773438 C 1.636719 -11.578125 1.417969 -11.1875 1.269531 -10.574219 C 1.222656 -10.28125 1.125 -9.648438 0.976562 -8.695312 L 4.445312 -8.695312 L 4.324219 -7.792969 L 3.835938 -4.347656 L 3.710938 -3.46875 C 3.566406 -2.566406 3.46875 -1.953125 3.417969 -1.636719 L 3.417969 -1.246094 C 3.417969 -0.953125 3.46875 -0.707031 3.566406 -0.539062 C 3.710938 -0.316406 4.003906 -0.171875 4.445312 -0.0976562 C 4.785156 -0.0507812 5.496094 -0.0234375 6.546875 -0.0234375 L 8.742188 -0.0234375 C 9.769531 -0.0234375 10.453125 -0.0507812 10.796875 -0.0976562 C 11.234375 -0.171875 11.550781 -0.292969 11.746094 -0.488281 C 11.941406 -0.683594 12.113281 -1 12.210938 -1.417969 C 12.308594 -1.757812 12.40625 -2.441406 12.554688 -3.46875 L 7.179688 -3.46875 L 7.300781 -4.347656 L 7.792969 -7.792969 L 7.914062 -8.695312 L 9.816406 -8.695312 C 10.894531 -8.695312 11.578125 -8.71875 11.917969 -8.742188 C 12.308594 -8.792969 12.578125 -8.890625 12.773438 -9.011719 C 13.066406 -9.207031 13.285156 -9.523438 13.410156 -10.011719 C 13.507812 -10.355469 13.628906 -11.039062 13.773438 -12.113281 L 8.402344 -12.113281 L 8.621094 -13.703125 C 8.769531 -14.777344 8.816406 -15.460938 8.816406 -15.777344 C 8.816406 -16.21875 8.742188 -16.511719 8.597656 -16.707031 C 8.449219 -16.875 8.15625 -17 7.765625 -17.046875 C 7.570312 -17.097656 7.277344 -17.121094 6.886719 -17.121094 Z M 4.640625 -17.121094 "/></g></g></g><g fill="#000000" fill-opacity="1"><g transform="translate(61.367727, 22.542388)"><g><path d="M 0.734375 -13.652344 L 0.246094 -10.234375 C 0.78125 -10.234375 1.171875 -10.207031 1.367188 -10.207031 C 1.832031 -10.207031 2.171875 -10.234375 2.417969 -10.257812 C 2.90625 -10.332031 3.273438 -10.503906 3.492188 -10.746094 C 3.664062 -10.964844 3.808594 -11.308594 3.90625 -11.746094 C 3.980469 -12.089844 4.078125 -12.722656 4.199219 -13.652344 L 4.6875 -17.097656 C 3.46875 -17.097656 2.664062 -17.070312 2.296875 -17 C 2.003906 -16.949219 1.78125 -16.828125 1.585938 -16.679688 C 1.34375 -16.484375 1.171875 -16.144531 1.050781 -15.605469 C 0.976562 -15.3125 0.878906 -14.652344 0.734375 -13.652344 Z M 0.734375 -13.652344 "/></g></g></g><g fill="#000000" fill-opacity="1"><g transform="translate(66.348711, 22.542388)"><g><path d="M 1.195312 -8.671875 L 1.074219 -7.792969 C 0.929688 -6.8125 0.832031 -6.179688 0.78125 -5.863281 L 0.78125 -5.570312 C 0.78125 -5.179688 0.878906 -4.910156 1.027344 -4.738281 C 1.222656 -4.566406 1.539062 -4.445312 2.027344 -4.394531 C 2.320312 -4.371094 2.808594 -4.347656 3.46875 -4.347656 L 9.453125 -4.347656 C 9.425781 -4.128906 9.402344 -3.980469 9.378906 -3.882812 C 9.378906 -3.761719 9.328125 -3.664062 9.28125 -3.589844 C 9.230469 -3.542969 9.160156 -3.492188 9.0625 -3.46875 C 8.988281 -3.46875 8.792969 -3.445312 8.5 -3.445312 L 0.464844 -3.445312 C 0.316406 -2.367188 0.246094 -1.683594 0.246094 -1.34375 C 0.246094 -0.976562 0.292969 -0.707031 0.414062 -0.511719 C 0.5625 -0.34375 0.78125 -0.21875 1.074219 -0.121094 C 1.417969 -0.0742188 2.199219 -0.0234375 3.46875 -0.0234375 L 8.839844 -0.0234375 C 10.085938 -0.0234375 10.894531 -0.0742188 11.234375 -0.121094 C 11.601562 -0.21875 11.871094 -0.367188 12.066406 -0.5625 C 12.210938 -0.757812 12.308594 -1 12.40625 -1.320312 C 12.503906 -1.660156 12.652344 -2.367188 12.796875 -3.445312 L 12.921875 -4.347656 C 13.042969 -5.324219 13.117188 -5.960938 13.117188 -6.253906 L 13.117188 -6.398438 C 13.117188 -6.839844 13.042969 -7.15625 12.871094 -7.351562 C 12.699219 -7.546875 12.359375 -7.695312 11.820312 -7.742188 C 11.527344 -7.792969 10.894531 -7.792969 9.914062 -7.792969 L 4.542969 -7.792969 C 4.589844 -8.058594 4.617188 -8.230469 4.617188 -8.304688 C 4.640625 -8.402344 4.664062 -8.476562 4.714844 -8.523438 C 4.761719 -8.597656 4.859375 -8.644531 4.957031 -8.644531 C 5.054688 -8.671875 5.300781 -8.671875 5.640625 -8.671875 L 10.429688 -8.671875 C 11.210938 -8.671875 11.773438 -8.695312 12.066406 -8.742188 C 12.40625 -8.792969 12.652344 -8.839844 12.847656 -8.9375 C 13.1875 -9.109375 13.433594 -9.425781 13.578125 -9.890625 C 13.703125 -10.234375 13.847656 -10.992188 13.996094 -12.113281 L 4.933594 -12.113281 C 4.054688 -12.113281 3.445312 -12.113281 3.101562 -12.066406 C 2.664062 -12.015625 2.34375 -11.917969 2.125 -11.746094 C 1.878906 -11.550781 1.683594 -11.234375 1.5625 -10.746094 C 1.464844 -10.40625 1.34375 -9.71875 1.195312 -8.671875 Z M 1.195312 -8.671875 "/></g></g></g><g fill="#000000" fill-opacity="1"><g transform="translate(80.21734, 22.542388)"><g/></g></g><g fill="#000000" fill-opacity="1"><g transform="translate(87.542322, 22.542388)"><g><path d="M 4.640625 -17.121094 C 4.882812 -16.925781 5.054688 -16.804688 5.128906 -16.707031 C 5.277344 -16.609375 5.347656 -16.484375 5.398438 -16.386719 C 5.445312 -16.316406 5.445312 -16.21875 5.445312 -16.09375 C 5.445312 -16.023438 5.445312 -15.875 5.421875 -15.632812 L 4.933594 -12.113281 L 4.421875 -12.113281 C 3.710938 -12.113281 3.199219 -12.113281 2.882812 -12.066406 C 2.464844 -12.015625 2.148438 -11.917969 1.90625 -11.773438 C 1.636719 -11.578125 1.417969 -11.1875 1.269531 -10.574219 C 1.222656 -10.28125 1.125 -9.648438 0.976562 -8.695312 L 4.445312 -8.695312 L 4.324219 -7.792969 L 3.835938 -4.347656 L 3.710938 -3.46875 C 3.566406 -2.566406 3.46875 -1.953125 3.417969 -1.636719 L 3.417969 -1.246094 C 3.417969 -0.953125 3.46875 -0.707031 3.566406 -0.539062 C 3.710938 -0.316406 4.003906 -0.171875 4.445312 -0.0976562 C 4.785156 -0.0507812 5.496094 -0.0234375 6.546875 -0.0234375 L 8.742188 -0.0234375 C 9.769531 -0.0234375 10.453125 -0.0507812 10.796875 -0.0976562 C 11.234375 -0.171875 11.550781 -0.292969 11.746094 -0.488281 C 11.941406 -0.683594 12.113281 -1 12.210938 -1.417969 C 12.308594 -1.757812 12.40625 -2.441406 12.554688 -3.46875 L 7.179688 -3.46875 L 7.300781 -4.347656 L 7.792969 -7.792969 L 7.914062 -8.695312 L 9.816406 -8.695312 C 10.894531 -8.695312 11.578125 -8.71875 11.917969 -8.742188 C 12.308594 -8.792969 12.578125 -8.890625 12.773438 -9.011719 C 13.066406 -9.207031 13.285156 -9.523438 13.410156 -10.011719 C 13.507812 -10.355469 13.628906 -11.039062 13.773438 -12.113281 L 8.402344 -12.113281 L 8.621094 -13.703125 C 8.769531 -14.777344 8.816406 -15.460938 8.816406 -15.777344 C 8.816406 -16.21875 8.742188 -16.511719 8.597656 -16.707031 C 8.449219 -16.875 8.15625 -17 7.765625 -17.046875 C 7.570312 -17.097656 7.277344 -17.121094 6.886719 -17.121094 Z M 4.640625 -17.121094 "/></g></g></g><g fill="#000000" fill-opacity="1"><g transform="translate(101.191202, 22.542388)"><g><path d="M 1.660156 -17.097656 C 1.90625 -16.902344 2.074219 -16.777344 2.148438 -16.679688 C 2.296875 -16.535156 2.394531 -16.414062 2.441406 -16.316406 C 2.492188 -16.242188 2.492188 -16.121094 2.492188 -15.972656 C 2.492188 -15.925781 2.464844 -15.777344 2.417969 -15.558594 L 1.636719 -9.964844 L 0.734375 -3.445312 L 0.246094 0 L 0.464844 0 C 1.367188 0 1.976562 -0.0234375 2.320312 -0.0742188 C 2.808594 -0.121094 3.152344 -0.269531 3.371094 -0.464844 C 3.589844 -0.660156 3.761719 -1 3.859375 -1.464844 C 3.957031 -1.808594 4.054688 -2.464844 4.199219 -3.445312 L 4.933594 -8.671875 L 10.308594 -8.671875 L 9.574219 -3.445312 L 9.085938 0 L 9.328125 0 C 10.257812 0 10.894531 -0.0234375 11.234375 -0.0742188 C 11.820312 -0.171875 12.234375 -0.367188 12.429688 -0.683594 C 12.578125 -0.929688 12.699219 -1.269531 12.796875 -1.710938 C 12.847656 -2.003906 12.945312 -2.589844 13.042969 -3.445312 L 13.773438 -8.671875 C 13.921875 -9.597656 13.996094 -10.234375 13.996094 -10.527344 L 13.996094 -10.769531 C 13.996094 -11.210938 13.921875 -11.503906 13.773438 -11.675781 C 13.605469 -11.871094 13.285156 -12.015625 12.824219 -12.066406 C 12.527344 -12.113281 11.992188 -12.113281 11.210938 -12.113281 L 5.421875 -12.113281 L 5.640625 -13.652344 C 5.8125 -14.652344 5.910156 -15.3125 5.910156 -15.632812 C 5.933594 -15.730469 5.933594 -15.800781 5.933594 -15.851562 C 5.933594 -16.21875 5.863281 -16.484375 5.714844 -16.65625 C 5.617188 -16.804688 5.421875 -16.925781 5.128906 -16.972656 C 4.910156 -17.046875 4.589844 -17.097656 4.175781 -17.097656 Z M 1.660156 -17.097656 "/></g></g></g><g fill="#000000" fill-opacity="1"><g transform="translate(115.426079, 22.542388)"><g><path d="M 5.226562 -12.089844 C 4.101562 -12.089844 3.371094 -12.089844 3.027344 -12.039062 C 2.589844 -11.992188 2.246094 -11.84375 2.003906 -11.625 C 1.78125 -11.40625 1.613281 -11.015625 1.488281 -10.429688 L 1.195312 -8.671875 L 0.464844 -3.445312 C 0.34375 -2.464844 0.269531 -1.832031 0.246094 -1.515625 L 0.246094 -1.320312 C 0.246094 -1 0.292969 -0.757812 0.390625 -0.5625 C 0.539062 -0.34375 0.78125 -0.195312 1.125 -0.0976562 C 1.464844 -0.0507812 2.101562 0 3.078125 0 L 12.308594 0 L 12.308594 -0.414062 C 12.308594 -1.125 12.308594 -1.636719 12.261719 -1.929688 C 12.234375 -2.441406 12.136719 -2.808594 11.941406 -3.003906 C 11.796875 -3.199219 11.527344 -3.320312 11.136719 -3.371094 C 10.867188 -3.417969 10.257812 -3.445312 9.304688 -3.445312 L 3.933594 -3.445312 C 3.980469 -3.6875 4.003906 -3.859375 4.003906 -3.933594 C 4.03125 -4.078125 4.054688 -4.175781 4.101562 -4.226562 C 4.152344 -4.273438 4.226562 -4.324219 4.296875 -4.324219 L 9.792969 -4.324219 C 10.648438 -4.324219 11.234375 -4.347656 11.550781 -4.394531 C 12.039062 -4.46875 12.382812 -4.617188 12.601562 -4.8125 C 12.796875 -5.007812 12.96875 -5.347656 13.066406 -5.8125 C 13.164062 -6.15625 13.261719 -6.789062 13.382812 -7.765625 L 13.53125 -8.671875 C 13.628906 -9.453125 13.703125 -9.964844 13.726562 -10.257812 C 13.75 -10.453125 13.75 -10.625 13.75 -10.769531 C 13.75 -11.257812 13.652344 -11.601562 13.410156 -11.773438 C 13.214844 -11.941406 12.847656 -12.039062 12.308594 -12.066406 C 12.015625 -12.089844 11.429688 -12.089844 10.550781 -12.089844 Z M 5.277344 -8.671875 L 10.039062 -8.671875 C 10.011719 -8.378906 9.988281 -8.207031 9.964844 -8.109375 C 9.964844 -8.011719 9.941406 -7.9375 9.890625 -7.890625 C 9.84375 -7.839844 9.746094 -7.792969 9.597656 -7.765625 L 4.542969 -7.765625 C 4.589844 -8.058594 4.617188 -8.230469 4.617188 -8.304688 C 4.664062 -8.425781 4.6875 -8.476562 4.714844 -8.523438 C 4.761719 -8.574219 4.8125 -8.621094 4.859375 -8.644531 C 4.910156 -8.671875 5.054688 -8.671875 5.277344 -8.671875 Z M 5.277344 -8.671875 "/></g></g></g><g fill="#000000" fill-opacity="1"><g transform="translate(129.026118, 22.542388)"><g/></g></g><g fill="#000000" fill-opacity="1"><g transform="translate(136.3511, 22.542388)"><g><path d="M 11.015625 -14.996094 L 10.527344 -12.089844 L 4.835938 -12.089844 C 3.957031 -12.089844 3.320312 -12.066406 2.980469 -12.015625 C 2.539062 -11.96875 2.222656 -11.84375 2.027344 -11.648438 C 1.808594 -11.453125 1.636719 -11.0625 1.515625 -10.527344 C 1.441406 -10.234375 1.34375 -9.597656 1.222656 -8.671875 C 1.171875 -8.253906 1.074219 -7.449219 0.878906 -6.226562 C 0.707031 -5.03125 0.585938 -4.101562 0.488281 -3.445312 C 0.367188 -2.636719 0.292969 -2.074219 0.269531 -1.78125 C 0.269531 -1.613281 0.246094 -1.464844 0.246094 -1.320312 C 0.246094 -1.027344 0.292969 -0.78125 0.367188 -0.609375 C 0.539062 -0.269531 1 -0.0742188 1.734375 -0.0234375 C 2.027344 -0.0234375 2.589844 0 3.394531 0 L 8.890625 0 C 9.867188 0 10.527344 -0.0234375 10.84375 -0.0507812 C 11.480469 -0.121094 11.894531 -0.292969 12.113281 -0.585938 C 12.308594 -0.832031 12.429688 -1.195312 12.527344 -1.710938 C 12.601562 -2.003906 12.699219 -2.589844 12.796875 -3.445312 L 12.921875 -4.347656 L 13.996094 -12.089844 L 14.433594 -15.535156 C 14.484375 -15.730469 14.507812 -15.875 14.507812 -15.949219 C 14.554688 -16.070312 14.605469 -16.167969 14.679688 -16.265625 C 14.75 -16.363281 14.847656 -16.460938 14.972656 -16.582031 C 15.09375 -16.679688 15.289062 -16.851562 15.558594 -17.097656 L 14.386719 -17.097656 C 14.066406 -17.097656 13.773438 -17.070312 13.507812 -17.046875 C 13.140625 -17 12.824219 -16.949219 12.527344 -16.851562 C 12.261719 -16.777344 12.015625 -16.65625 11.820312 -16.511719 C 11.578125 -16.339844 11.382812 -16.09375 11.234375 -15.777344 C 11.136719 -15.558594 11.0625 -15.289062 11.015625 -14.996094 Z M 5.691406 -8.671875 L 10.039062 -8.671875 L 9.453125 -4.347656 C 9.402344 -4.101562 9.378906 -3.933594 9.328125 -3.835938 C 9.304688 -3.738281 9.257812 -3.640625 9.207031 -3.589844 C 9.160156 -3.515625 9.035156 -3.46875 8.867188 -3.445312 L 3.957031 -3.445312 L 4.566406 -7.765625 C 4.617188 -8.011719 4.640625 -8.15625 4.640625 -8.230469 C 4.6875 -8.378906 4.738281 -8.476562 4.785156 -8.523438 C 4.835938 -8.574219 4.882812 -8.621094 4.957031 -8.621094 C 5.007812 -8.644531 5.078125 -8.644531 5.179688 -8.644531 C 5.421875 -8.671875 5.59375 -8.671875 5.691406 -8.671875 Z M 5.691406 -8.671875 "/></g></g></g><g fill="#000000" fill-opacity="1"><g transform="translate(150.415057, 22.542388)"><g><path d="M 5.226562 -12.089844 C 4.101562 -12.089844 3.371094 -12.089844 3.027344 -12.039062 C 2.589844 -11.992188 2.246094 -11.84375 2.003906 -11.625 C 1.78125 -11.40625 1.613281 -11.015625 1.488281 -10.429688 L 1.195312 -8.671875 L 0.464844 -3.445312 C 0.34375 -2.464844 0.269531 -1.832031 0.246094 -1.515625 L 0.246094 -1.320312 C 0.246094 -1 0.292969 -0.757812 0.390625 -0.5625 C 0.539062 -0.34375 0.78125 -0.195312 1.125 -0.0976562 C 1.464844 -0.0507812 2.101562 0 3.078125 0 L 12.308594 0 L 12.308594 -0.414062 C 12.308594 -1.125 12.308594 -1.636719 12.261719 -1.929688 C 12.234375 -2.441406 12.136719 -2.808594 11.941406 -3.003906 C 11.796875 -3.199219 11.527344 -3.320312 11.136719 -3.371094 C 10.867188 -3.417969 10.257812 -3.445312 9.304688 -3.445312 L 3.933594 -3.445312 C 3.980469 -3.6875 4.003906 -3.859375 4.003906 -3.933594 C 4.03125 -4.078125 4.054688 -4.175781 4.101562 -4.226562 C 4.152344 -4.273438 4.226562 -4.324219 4.296875 -4.324219 L 9.792969 -4.324219 C 10.648438 -4.324219 11.234375 -4.347656 11.550781 -4.394531 C 12.039062 -4.46875 12.382812 -4.617188 12.601562 -4.8125 C 12.796875 -5.007812 12.96875 -5.347656 13.066406 -5.8125 C 13.164062 -6.15625 13.261719 -6.789062 13.382812 -7.765625 L 13.53125 -8.671875 C 13.628906 -9.453125 13.703125 -9.964844 13.726562 -10.257812 C 13.75 -10.453125 13.75 -10.625 13.75 -10.769531 C 13.75 -11.257812 13.652344 -11.601562 13.410156 -11.773438 C 13.214844 -11.941406 12.847656 -12.039062 12.308594 -12.066406 C 12.015625 -12.089844 11.429688 -12.089844 10.550781 -12.089844 Z M 5.277344 -8.671875 L 10.039062 -8.671875 C 10.011719 -8.378906 9.988281 -8.207031 9.964844 -8.109375 C 9.964844 -8.011719 9.941406 -7.9375 9.890625 -7.890625 C 9.84375 -7.839844 9.746094 -7.792969 9.597656 -7.765625 L 4.542969 -7.765625 C 4.589844 -8.058594 4.617188 -8.230469 4.617188 -8.304688 C 4.664062 -8.425781 4.6875 -8.476562 4.714844 -8.523438 C 4.761719 -8.574219 4.8125 -8.621094 4.859375 -8.644531 C 4.910156 -8.671875 5.054688 -8.671875 5.277344 -8.671875 Z M 5.277344 -8.671875 "/></g></g></g><g fill="#000000" fill-opacity="1"><g transform="translate(164.015096, 22.542388)"><g><path d="M 11.136719 -12.113281 L 1.683594 -12.113281 L 1.683594 -11.699219 C 1.683594 -11.0625 1.710938 -10.574219 1.710938 -10.28125 C 1.757812 -9.746094 1.855469 -9.378906 2.003906 -9.160156 C 2.171875 -8.9375 2.464844 -8.792969 2.90625 -8.71875 C 3.199219 -8.695312 3.808594 -8.671875 4.6875 -8.671875 L 10.0625 -8.671875 C 10.039062 -8.402344 10.011719 -8.230469 9.988281 -8.132812 C 9.988281 -8.035156 9.964844 -7.960938 9.914062 -7.914062 C 9.867188 -7.863281 9.792969 -7.816406 9.695312 -7.792969 C 9.648438 -7.792969 9.5 -7.765625 9.304688 -7.765625 L 4.199219 -7.765625 C 3.296875 -7.765625 2.664062 -7.742188 2.320312 -7.695312 C 1.90625 -7.644531 1.585938 -7.496094 1.367188 -7.277344 C 1.171875 -7.082031 1 -6.691406 0.878906 -6.105469 C 0.832031 -5.8125 0.734375 -5.226562 0.609375 -4.347656 L 0.464844 -3.445312 C 0.34375 -2.464844 0.269531 -1.808594 0.246094 -1.464844 L 0.246094 -1.320312 C 0.246094 -0.929688 0.292969 -0.660156 0.441406 -0.464844 C 0.585938 -0.292969 0.832031 -0.171875 1.171875 -0.0976562 C 1.515625 -0.0507812 2.269531 0 3.445312 0 L 8.742188 0 C 9.964844 0 10.746094 -0.0507812 11.089844 -0.0976562 C 11.429688 -0.171875 11.699219 -0.269531 11.894531 -0.414062 C 12.113281 -0.585938 12.285156 -0.855469 12.382812 -1.195312 C 12.503906 -1.539062 12.652344 -2.269531 12.796875 -3.445312 L 13.140625 -5.933594 L 13.53125 -8.671875 C 13.652344 -9.550781 13.726562 -10.136719 13.726562 -10.429688 C 13.75 -10.574219 13.75 -10.671875 13.75 -10.769531 C 13.75 -11.285156 13.628906 -11.625 13.382812 -11.796875 C 13.238281 -11.917969 12.992188 -11.992188 12.652344 -12.039062 C 12.359375 -12.089844 11.84375 -12.113281 11.136719 -12.113281 Z M 4.640625 -4.347656 L 9.453125 -4.347656 C 9.425781 -4.078125 9.402344 -3.90625 9.378906 -3.808594 C 9.355469 -3.710938 9.328125 -3.613281 9.28125 -3.566406 C 9.257812 -3.515625 9.207031 -3.492188 9.109375 -3.46875 C 9.0625 -3.46875 8.914062 -3.445312 8.71875 -3.445312 L 3.933594 -3.445312 C 3.980469 -3.640625 4.003906 -3.785156 4.003906 -3.859375 C 4.03125 -4.054688 4.054688 -4.175781 4.101562 -4.226562 C 4.152344 -4.273438 4.199219 -4.324219 4.273438 -4.324219 C 4.324219 -4.347656 4.445312 -4.347656 4.640625 -4.347656 Z M 4.640625 -4.347656 "/></g></g></g><g clip-path="url(#b827f1f2ea)"><g fill="#000000" fill-opacity="1"><g transform="translate(177.981383, 22.542388)"><g><path d="M 6.105469 -17.121094 C 4.933594 -17.121094 4.175781 -17.097656 3.835938 -17.023438 C 3.46875 -16.972656 3.175781 -16.851562 2.980469 -16.65625 C 2.785156 -16.460938 2.613281 -16.144531 2.492188 -15.703125 C 2.417969 -15.386719 2.296875 -14.703125 2.148438 -13.675781 L 1.613281 -9.695312 L 1.125 -6.324219 L 0.488281 -1.78125 C 0.464844 -1.585938 0.441406 -1.441406 0.414062 -1.34375 C 0.390625 -1.246094 0.34375 -1.171875 0.292969 -1.074219 C 0.246094 -0.976562 0.121094 -0.832031 -0.0507812 -0.660156 C -0.148438 -0.5625 -0.367188 -0.367188 -0.734375 -0.0234375 L 0.414062 -0.0234375 C 1.488281 -0.0234375 2.199219 -0.0507812 2.539062 -0.0976562 C 2.957031 -0.195312 3.25 -0.34375 3.445312 -0.539062 C 3.640625 -0.757812 3.785156 -1.097656 3.882812 -1.585938 C 3.980469 -1.90625 4.078125 -2.515625 4.199219 -3.417969 L 4.910156 -8.5 L 5.59375 -13.382812 Z M 6.105469 -17.121094 "/></g></g></g></g><g clip-path="url(#2f1b8598be)"><path stroke-linecap="butt" transform="matrix(0.725807, 0, 0, 0.725807, 2.782255, 5.495267)" fill="none" stroke-linejoin="miter" d="M 3.303128 5.307734 C 3.64219 5.781345 3.873614 6.088116 3.981252 6.281866 C 4.142711 6.491762 4.244968 6.685512 4.282641 6.825442 C 4.347224 6.959991 4.347224 7.089157 4.347224 7.261379 C 4.347224 7.325963 4.347224 7.498185 4.314933 7.7619 L 3.706773 12.040544 L 2.969447 17.250264 C 2.829517 18.434291 2.732642 19.241582 2.70035 19.639846 C 2.70035 19.812068 2.662677 19.978908 2.662677 20.151131 C 2.662677 20.61936 2.732642 20.958422 2.872572 21.227519 C 3.066322 21.566581 3.50226 21.760331 4.142711 21.900262 C 4.621704 21.964845 5.590453 22.002519 7.075869 22.002519 L 14.513713 22.002519 C 15.783851 22.002519 16.628816 21.964845 17.032462 21.932553 C 17.947392 21.86797 18.544788 21.663456 18.88385 21.324394 C 19.185239 20.990714 19.422044 20.490193 19.556593 19.779777 C 19.653468 19.338457 19.793398 18.498874 19.960238 17.250264 L 20.966662 10.022316 C 21.176557 8.542282 21.273432 7.56815 21.273432 7.132213 C 21.273432 6.454088 21.138884 6.012769 20.837495 5.781345 C 20.60069 5.54454 20.164752 5.415373 19.556593 5.3777 C 19.120655 5.307734 18.205725 5.307734 16.827948 5.307734 L 15.89149 12.040544 L 15.154164 17.250264 C 14.707463 17.250264 14.406074 17.217972 14.271526 17.217972 C 14.142359 17.153389 14.03472 17.121097 13.970137 17.056514 C 13.937845 16.954257 13.937845 16.814327 13.937845 16.652868 C 13.937845 16.512938 13.970137 16.313806 14.002429 15.980125 L 14.847393 9.990024 C 14.981942 8.978219 15.046525 8.305476 15.078817 7.934122 C 15.111109 7.665025 15.111109 7.42822 15.111109 7.229088 C 15.111109 6.620928 15.046525 6.217283 14.847393 5.980477 C 14.64288 5.641415 14.206942 5.447665 13.566491 5.3777 C 13.130554 5.307734 12.188714 5.307734 10.740972 5.307734 L 9.79375 11.803738 L 9.056424 17.250264 C 8.588195 17.250264 8.286806 17.217972 8.152258 17.217972 C 8.012327 17.153389 7.915452 17.088806 7.88316 16.954257 C 7.88316 16.846618 7.850869 16.717452 7.850869 16.545229 C 7.88316 16.448354 7.915452 16.281514 7.915452 16.044709 L 8.755035 10.022316 C 8.991841 8.542282 9.088715 7.56815 9.088715 7.089157 C 9.088715 6.454088 8.959549 6.012769 8.652778 5.781345 C 8.448264 5.576831 8.07691 5.447665 7.608681 5.3777 C 7.275001 5.307734 6.806772 5.307734 6.166321 5.307734 Z M 23.862146 -1.554242 C 24.190445 -1.279763 24.42725 -1.118304 24.529507 -0.989138 C 24.734021 -0.779242 24.863188 -0.617784 24.938535 -0.477853 C 25.003118 -0.380978 25.003118 -0.203374 25.003118 -0.00962441 C 25.003118 0.0549589 24.970827 0.264855 24.906243 0.566243 L 23.819091 8.273184 L 22.581244 17.250264 L 21.908501 22.002519 L 22.20989 22.002519 C 23.453119 22.002519 24.298084 21.964845 24.766313 21.900262 C 25.439055 21.835678 25.907284 21.631165 26.214055 21.356686 C 26.515444 21.087589 26.752249 20.61936 26.886798 19.978908 C 27.026728 19.51068 27.155895 18.601131 27.360409 17.250264 L 28.366832 10.054607 L 35.772384 10.054607 L 34.765961 17.250264 L 34.093218 22.002519 L 34.426899 22.002519 C 35.702419 22.002519 36.579676 21.964845 37.047905 21.900262 C 37.855196 21.760331 38.431064 21.496616 38.700161 21.055297 C 38.899293 20.716235 39.071515 20.248006 39.200681 19.639846 C 39.265265 19.241582 39.405195 18.434291 39.539744 17.250264 L 40.546167 10.054607 C 40.750681 8.773705 40.852938 7.90183 40.852938 7.498185 L 40.852938 7.164504 C 40.852938 6.556345 40.750681 6.152699 40.546167 5.915894 C 40.309361 5.641415 39.873424 5.447665 39.232973 5.3777 C 38.829327 5.307734 38.092001 5.307734 37.015613 5.307734 L 29.039575 5.307734 L 29.340963 3.187249 C 29.583151 1.80409 29.712318 0.905306 29.712318 0.469368 C 29.744609 0.329438 29.744609 0.227181 29.744609 0.162598 C 29.744609 -0.343305 29.647734 -0.714659 29.44322 -0.946082 C 29.308672 -1.150596 29.039575 -1.322818 28.635929 -1.387402 C 28.329158 -1.489658 27.898603 -1.554242 27.322735 -1.554242 Z M 56.530535 5.307734 L 43.506235 5.307734 L 43.506235 5.883602 C 43.506235 6.760859 43.538527 7.42822 43.538527 7.837247 C 43.608492 8.574573 43.737659 9.075094 43.942172 9.381865 C 44.178978 9.683253 44.582623 9.882385 45.185401 9.990024 C 45.594429 10.022316 46.434012 10.054607 47.639567 10.054607 L 55.050501 10.054607 C 55.007445 10.425961 54.975154 10.662767 54.942862 10.791933 C 54.942862 10.926482 54.91057 11.034121 54.845987 11.098704 C 54.781404 11.163287 54.673765 11.227871 54.539216 11.260162 C 54.474633 11.260162 54.270119 11.297836 54.006404 11.297836 L 46.972206 11.297836 C 45.723595 11.297836 44.846339 11.335509 44.37811 11.400093 C 43.802242 11.470058 43.366305 11.674572 43.064916 11.970579 C 42.801201 12.239676 42.564395 12.783252 42.392173 13.585161 C 42.32759 13.988807 42.193041 14.796098 42.020819 16.012417 L 41.821687 17.250264 C 41.649465 18.601131 41.55259 19.51068 41.520298 19.978908 L 41.520298 20.183422 C 41.520298 20.716235 41.584882 21.087589 41.789396 21.356686 C 41.988527 21.598873 42.32759 21.760331 42.801201 21.86797 C 43.26943 21.932553 44.313526 22.002519 45.933491 22.002519 L 53.226022 22.002519 C 54.91057 22.002519 55.986959 21.932553 56.465952 21.86797 C 56.934181 21.760331 57.300153 21.631165 57.574632 21.426651 C 57.87602 21.195227 58.107444 20.823873 58.247374 20.350262 C 58.408833 19.882034 58.613346 18.870228 58.812478 17.250264 L 59.291471 13.827349 L 59.824283 10.054607 C 59.996506 8.838288 60.093381 8.036379 60.093381 7.632733 C 60.125672 7.42822 60.125672 7.293671 60.125672 7.164504 C 60.125672 6.454088 59.964214 5.980477 59.625152 5.749054 C 59.420638 5.576831 59.081575 5.479957 58.613346 5.415373 C 58.215083 5.340026 57.504666 5.307734 56.530535 5.307734 Z M 47.574983 16.012417 L 54.205536 16.012417 C 54.173244 16.378389 54.140953 16.620577 54.103279 16.749743 C 54.070987 16.884292 54.038696 17.01884 53.96873 17.088806 C 53.931057 17.153389 53.866474 17.185681 53.737307 17.217972 C 53.672724 17.217972 53.462828 17.250264 53.193731 17.250264 L 46.59547 17.250264 C 46.670817 16.986549 46.703109 16.782035 46.703109 16.68516 C 46.7354 16.416063 46.767692 16.249223 46.837657 16.173875 C 46.902241 16.109292 46.972206 16.044709 47.074463 16.044709 C 47.139046 16.012417 47.305886 16.012417 47.574983 16.012417 Z M 66.815426 -1.586533 C 67.154489 -1.322818 67.391294 -1.150596 67.488169 -1.02143 C 67.698065 -0.881499 67.79494 -0.714659 67.859523 -0.574728 C 67.924106 -0.477853 67.924106 -0.343305 67.924106 -0.171083 C 67.924106 -0.0742077 67.924106 0.130306 67.891815 0.469368 L 67.219072 5.307734 L 66.514037 5.307734 C 65.545288 5.307734 64.834872 5.307734 64.393552 5.3777 C 63.828448 5.447665 63.381747 5.576831 63.048067 5.781345 C 62.676713 6.04506 62.380706 6.588637 62.176192 7.42822 C 62.111609 7.837247 61.971678 8.709122 61.772546 10.022316 L 66.546329 10.022316 L 66.379489 11.260162 L 65.706746 16.012417 L 65.545288 17.217972 C 65.340774 18.466583 65.206226 19.306166 65.130878 19.747485 L 65.130878 20.285679 C 65.130878 20.683943 65.206226 21.023005 65.340774 21.259811 C 65.545288 21.566581 65.943552 21.760331 66.546329 21.86797 C 67.01994 21.932553 67.999453 21.964845 69.447196 21.964845 L 72.466465 21.964845 C 73.881916 21.964845 74.829138 21.932553 75.297367 21.86797 C 75.905526 21.760331 76.336082 21.598873 76.610561 21.324394 C 76.879658 21.055297 77.116463 20.61936 77.251012 20.043492 C 77.380178 19.575263 77.520109 18.633423 77.719241 17.217972 L 70.31907 17.217972 L 70.491293 16.012417 L 71.164035 11.260162 L 71.325494 10.022316 L 73.957263 10.022316 C 75.437297 10.022316 76.379137 9.990024 76.847366 9.957732 C 77.380178 9.882385 77.751532 9.753219 78.02063 9.586378 C 78.424275 9.317281 78.731046 8.881344 78.903268 8.208601 C 79.032435 7.729608 79.204657 6.79315 79.403789 5.307734 L 71.998236 5.307734 L 72.305007 3.122666 C 72.504139 1.642632 72.574104 0.69541 72.574104 0.264855 C 72.574104 -0.343305 72.466465 -0.74695 72.272715 -1.02143 C 72.068202 -1.247471 71.664556 -1.419693 71.131744 -1.489658 C 70.857265 -1.554242 70.459001 -1.586533 69.915425 -1.586533 Z M 80.243372 3.187249 L 79.565247 7.90183 C 80.307955 7.90183 80.851531 7.934122 81.109864 7.934122 C 81.750315 7.934122 82.229308 7.90183 82.568371 7.869539 C 83.23035 7.7619 83.741634 7.530476 84.043023 7.196796 C 84.274446 6.890025 84.47896 6.421796 84.613509 5.813637 C 84.715766 5.340026 84.850314 4.468151 85.022536 3.187249 L 85.689897 -1.554242 C 84.010731 -1.554242 82.896669 -1.52195 82.396149 -1.419693 C 81.992503 -1.35511 81.685732 -1.182888 81.416635 -0.989138 C 81.077573 -0.714659 80.851531 -0.241048 80.673927 0.50166 C 80.577052 0.905306 80.437122 1.80409 80.243372 3.187249 Z M 87.745799 10.054607 L 87.573577 11.260162 C 87.374445 12.61103 87.234514 13.488286 87.169931 13.924224 L 87.169931 14.327869 C 87.169931 14.871445 87.299098 15.237417 87.508993 15.468841 C 87.778091 15.705646 88.214028 15.877869 88.886771 15.947834 C 89.290416 15.980125 89.963159 16.012417 90.872707 16.012417 L 99.112461 16.012417 C 99.080169 16.313806 99.047877 16.512938 99.015586 16.652868 C 99.015586 16.814327 98.951002 16.954257 98.875655 17.056514 C 98.811072 17.121097 98.714197 17.185681 98.579648 17.217972 C 98.472009 17.217972 98.208294 17.250264 97.799267 17.250264 L 86.733994 17.250264 C 86.52948 18.741062 86.432605 19.67752 86.432605 20.151131 C 86.432605 20.651651 86.497188 21.023005 86.669411 21.292102 C 86.86316 21.53429 87.169931 21.695748 87.573577 21.835678 C 88.047188 21.900262 89.123576 21.964845 90.872707 21.964845 L 98.27826 21.964845 C 99.995099 21.964845 101.103779 21.900262 101.572008 21.835678 C 102.077911 21.695748 102.449265 21.496616 102.71298 21.227519 C 102.917494 20.958422 103.052042 20.61936 103.191973 20.183422 C 103.321139 19.709811 103.525653 18.741062 103.724785 17.250264 L 103.897007 16.012417 C 104.058465 14.66155 104.166104 13.795057 104.166104 13.380647 L 104.166104 13.186898 C 104.166104 12.578738 104.058465 12.142801 103.832424 11.868322 C 103.590236 11.599225 103.122007 11.400093 102.373918 11.335509 C 101.975654 11.260162 101.103779 11.260162 99.752912 11.260162 L 92.352741 11.260162 C 92.417325 10.89419 92.449616 10.662767 92.449616 10.555128 C 92.48729 10.425961 92.519582 10.323704 92.589547 10.253739 C 92.659512 10.151482 92.788679 10.086899 92.917845 10.086899 C 93.057776 10.054607 93.396838 10.054607 93.865067 10.054607 L 100.463328 10.054607 C 101.539716 10.054607 102.309334 10.022316 102.71298 9.957732 C 103.191973 9.882385 103.525653 9.817802 103.789368 9.683253 C 104.262979 9.446448 104.602042 9.010511 104.801173 8.370059 C 104.973396 7.90183 105.167145 6.857734 105.377041 5.307734 L 92.885554 5.307734 C 91.679999 5.307734 90.840416 5.307734 90.366805 5.3777 C 89.758645 5.447665 89.322708 5.576831 89.015937 5.813637 C 88.682257 6.088116 88.418542 6.524053 88.24632 7.196796 C 88.111771 7.665025 87.939549 8.606865 87.745799 10.054607 Z M 121.684326 -1.586533 C 122.023388 -1.322818 122.260193 -1.150596 122.357068 -1.02143 C 122.561582 -0.881499 122.663839 -0.714659 122.728422 -0.574728 C 122.793006 -0.477853 122.793006 -0.343305 122.793006 -0.171083 C 122.793006 -0.0742077 122.793006 0.130306 122.760714 0.469368 L 122.087971 5.307734 L 121.382937 5.307734 C 120.414187 5.307734 119.703771 5.307734 119.262452 5.3777 C 118.691966 5.447665 118.250647 5.576831 117.911584 5.781345 C 117.545612 6.04506 117.249605 6.588637 117.045092 7.42822 C 116.975126 7.837247 116.835196 8.709122 116.641446 10.022316 L 121.415229 10.022316 L 121.248388 11.260162 L 120.575646 16.012417 L 120.414187 17.217972 C 120.204292 18.466583 120.075125 19.306166 119.999778 19.747485 L 119.999778 20.285679 C 119.999778 20.683943 120.075125 21.023005 120.204292 21.259811 C 120.414187 21.566581 120.812451 21.760331 121.415229 21.86797 C 121.888839 21.932553 122.868353 21.964845 124.316095 21.964845 L 127.335365 21.964845 C 128.750816 21.964845 129.692655 21.932553 130.160884 21.86797 C 130.769044 21.760331 131.204981 21.598873 131.47946 21.324394 C 131.748557 21.055297 131.985363 20.61936 132.119911 20.043492 C 132.249078 19.575263 132.389008 18.633423 132.58814 17.217972 L 125.182588 17.217972 L 125.35481 16.012417 L 126.032935 11.260162 L 126.194393 10.022316 L 128.826163 10.022316 C 130.300815 10.022316 131.248037 9.990024 131.716266 9.957732 C 132.249078 9.882385 132.620432 9.753219 132.889529 9.586378 C 133.293175 9.317281 133.594563 8.881344 133.772168 8.208601 C 133.901334 7.729608 134.073556 6.79315 134.272688 5.307734 L 126.867136 5.307734 L 127.173907 3.122666 C 127.367657 1.642632 127.443004 0.69541 127.443004 0.264855 C 127.443004 -0.343305 127.335365 -0.74695 127.141615 -1.02143 C 126.937101 -1.247471 126.533455 -1.419693 125.995261 -1.489658 C 125.726164 -1.554242 125.322519 -1.586533 124.784324 -1.586533 Z M 136.393173 -1.554242 C 136.721472 -1.279763 136.958277 -1.118304 137.055152 -0.989138 C 137.259666 -0.779242 137.394215 -0.617784 137.46418 -0.477853 C 137.534145 -0.380978 137.534145 -0.203374 137.534145 -0.00962441 C 137.534145 0.0549589 137.501853 0.264855 137.431888 0.566243 L 136.350118 8.273184 L 135.106889 17.250264 L 134.434146 22.002519 L 134.740917 22.002519 C 135.978764 22.002519 136.823729 21.964845 137.291958 21.900262 C 137.970082 21.835678 138.438311 21.631165 138.7397 21.356686 C 139.046471 21.087589 139.283276 20.61936 139.412443 19.978908 C 139.552373 19.51068 139.686922 18.601131 139.891436 17.250264 L 140.892477 10.054607 L 148.303411 10.054607 L 147.291606 17.250264 L 146.618863 22.002519 L 146.957926 22.002519 C 148.228064 22.002519 149.105321 21.964845 149.57355 21.900262 C 150.380841 21.760331 150.956709 21.496616 151.225806 21.055297 C 151.424938 20.716235 151.59716 20.248006 151.726326 19.639846 C 151.796292 19.241582 151.936222 18.434291 152.065389 17.250264 L 153.077194 10.054607 C 153.281708 8.773705 153.378583 7.90183 153.378583 7.498185 L 153.378583 7.164504 C 153.378583 6.556345 153.281708 6.152699 153.077194 5.915894 C 152.835006 5.641415 152.404451 5.447665 151.764 5.3777 C 151.360354 5.307734 150.617646 5.307734 149.541258 5.307734 L 141.56522 5.307734 L 141.87199 3.187249 C 142.108796 1.80409 142.237962 0.905306 142.237962 0.469368 C 142.270254 0.329438 142.270254 0.227181 142.270254 0.162598 C 142.270254 -0.343305 142.173379 -0.714659 141.968865 -0.946082 C 141.839699 -1.150596 141.56522 -1.322818 141.161574 -1.387402 C 140.860185 -1.489658 140.424248 -1.554242 139.84838 -1.554242 Z M 160.913301 5.340026 C 159.363302 5.340026 158.351497 5.340026 157.883268 5.415373 C 157.275109 5.479957 156.80688 5.673706 156.473199 5.980477 C 156.166429 6.281866 155.929623 6.825442 155.762783 7.632733 L 155.364519 10.054607 L 154.352714 17.250264 C 154.180492 18.601131 154.078235 19.478388 154.045943 19.914325 L 154.045943 20.183422 C 154.045943 20.61936 154.115909 20.958422 154.255839 21.227519 C 154.449589 21.53429 154.788651 21.72804 155.25688 21.86797 C 155.730491 21.932553 156.602366 22.002519 157.947851 22.002519 L 170.665381 22.002519 L 170.665381 21.426651 C 170.665381 20.457901 170.665381 19.747485 170.600797 19.338457 C 170.568506 18.633423 170.439339 18.132902 170.16486 17.858423 C 169.960346 17.589326 169.588992 17.422486 169.05618 17.357903 C 168.684826 17.293319 167.839861 17.250264 166.537431 17.250264 L 159.126497 17.250264 C 159.196462 16.921965 159.234136 16.68516 159.234136 16.588285 C 159.266427 16.378389 159.298719 16.249223 159.363302 16.173875 C 159.427885 16.109292 159.535524 16.044709 159.632399 16.044709 L 167.19941 16.044709 C 168.383437 16.044709 169.190728 16.012417 169.626666 15.947834 C 170.299408 15.840195 170.773019 15.641063 171.07979 15.371966 C 171.343505 15.097487 171.580311 14.629258 171.709477 13.988807 C 171.849408 13.520578 171.983956 12.643321 172.156178 11.297836 L 172.349928 10.054607 C 172.489859 8.978219 172.592116 8.273184 172.624407 7.869539 C 172.656699 7.600442 172.656699 7.358254 172.656699 7.164504 C 172.656699 6.491762 172.522151 6.012769 172.18847 5.781345 C 171.913991 5.54454 171.408089 5.415373 170.665381 5.3777 C 170.267117 5.340026 169.459826 5.340026 168.243507 5.340026 Z M 160.983267 10.054607 L 167.538472 10.054607 C 167.506181 10.458253 167.473889 10.695058 167.436215 10.829607 C 167.436215 10.964155 167.403924 11.066412 167.33934 11.130996 C 167.274757 11.195579 167.134827 11.260162 166.935695 11.297836 L 159.971462 11.297836 C 160.036045 10.89419 160.068337 10.662767 160.068337 10.555128 C 160.13292 10.39367 160.170593 10.323704 160.208267 10.253739 C 160.27285 10.183774 160.342816 10.119191 160.407399 10.086899 C 160.471982 10.054607 160.676496 10.054607 160.983267 10.054607 Z M 197.715021 1.335861 L 197.042279 5.340026 L 189.206171 5.340026 C 187.995234 5.340026 187.117977 5.3777 186.649749 5.447665 C 186.041589 5.512248 185.605652 5.673706 185.336555 5.948185 C 185.029784 6.217283 184.792978 6.760859 184.626138 7.498185 C 184.529263 7.90183 184.389333 8.773705 184.222493 10.054607 C 184.157909 10.630475 184.017979 11.739155 183.748882 13.423703 C 183.517458 15.065195 183.345236 16.346098 183.216069 17.250264 C 183.043847 18.369708 182.94159 19.139325 182.909299 19.542971 C 182.909299 19.779777 182.877007 19.978908 182.877007 20.183422 C 182.877007 20.587068 182.94159 20.92613 183.043847 21.162936 C 183.280653 21.631165 183.921104 21.900262 184.932909 21.964845 C 185.336555 21.964845 186.106172 22.002519 187.214852 22.002519 L 194.792627 22.002519 C 196.138112 22.002519 197.042279 21.964845 197.483598 21.932553 C 198.355473 21.835678 198.93134 21.598873 199.232729 21.195227 C 199.496444 20.856165 199.668666 20.350262 199.803215 19.639846 C 199.910854 19.241582 200.04002 18.434291 200.169187 17.250264 L 200.341409 16.012417 L 201.821443 5.340026 L 202.429603 0.598535 C 202.494186 0.329438 202.526478 0.130306 202.526478 0.0226672 C 202.596443 -0.138791 202.661026 -0.278722 202.768665 -0.41327 C 202.86554 -0.542437 202.994707 -0.682367 203.172311 -0.849207 C 203.333769 -0.989138 203.602866 -1.215179 203.97422 -1.554242 L 202.365019 -1.554242 C 201.918318 -1.554242 201.520054 -1.52195 201.1487 -1.489658 C 200.64818 -1.419693 200.201479 -1.35511 199.803215 -1.215179 C 199.431861 -1.118304 199.092799 -0.946082 198.823701 -0.74695 C 198.495403 -0.510145 198.226306 -0.171083 198.01641 0.264855 C 197.887244 0.566243 197.779605 0.937597 197.715021 1.335861 Z M 190.379434 10.054607 L 196.369536 10.054607 L 195.562245 16.012417 C 195.497661 16.346098 195.46537 16.588285 195.395404 16.717452 C 195.363113 16.846618 195.293147 16.986549 195.223182 17.056514 C 195.158599 17.153389 194.997141 17.217972 194.754953 17.250264 L 187.995234 17.250264 L 188.834817 11.297836 C 188.8994 10.964155 188.931692 10.759642 188.931692 10.662767 C 188.996275 10.458253 189.071622 10.323704 189.136206 10.253739 C 189.206171 10.183774 189.270754 10.119191 189.367629 10.119191 C 189.442976 10.086899 189.539851 10.086899 189.6744 10.086899 C 190.00808 10.054607 190.244886 10.054607 190.379434 10.054607 Z M 209.124739 5.340026 C 207.569357 5.340026 206.557552 5.340026 206.089323 5.415373 C 205.481164 5.479957 205.012935 5.673706 204.679254 5.980477 C 204.372484 6.281866 204.135678 6.825442 203.97422 7.632733 L 203.570574 10.054607 L 202.558769 17.250264 C 202.386547 18.601131 202.289672 19.478388 202.257381 19.914325 L 202.257381 20.183422 C 202.257381 20.61936 202.321964 20.958422 202.461894 21.227519 C 202.655644 21.53429 202.994707 21.72804 203.462936 21.86797 C 203.936546 21.932553 204.808421 22.002519 206.159289 22.002519 L 218.876818 22.002519 L 218.876818 21.426651 C 218.876818 20.457901 218.876818 19.747485 218.806852 19.338457 C 218.774561 18.633423 218.645394 18.132902 218.370915 17.858423 C 218.166401 17.589326 217.800429 17.422486 217.262235 17.357903 C 216.896263 17.293319 216.045916 17.250264 214.743486 17.250264 L 207.332552 17.250264 C 207.407899 16.921965 207.440191 16.68516 207.440191 16.588285 C 207.472482 16.378389 207.504774 16.249223 207.569357 16.173875 C 207.633941 16.109292 207.74158 16.044709 207.843836 16.044709 L 215.405465 16.044709 C 216.589492 16.044709 217.396784 16.012417 217.832721 15.947834 C 218.505464 15.840195 218.979075 15.641063 219.285845 15.371966 C 219.54956 15.097487 219.786366 14.629258 219.915532 13.988807 C 220.055463 13.520578 220.190012 12.643321 220.362234 11.297836 L 220.555984 10.054607 C 220.695914 8.978219 220.798171 8.273184 220.830463 7.869539 C 220.862754 7.600442 220.862754 7.358254 220.862754 7.164504 C 220.862754 6.491762 220.733588 6.012769 220.394525 5.781345 C 220.125428 5.54454 219.614144 5.415373 218.876818 5.3777 C 218.473172 5.340026 217.665881 5.340026 216.449562 5.340026 Z M 209.189322 10.054607 L 215.744527 10.054607 C 215.712236 10.458253 215.679944 10.695058 215.647652 10.829607 C 215.647652 10.964155 215.615361 11.066412 215.545396 11.130996 C 215.480812 11.195579 215.340882 11.260162 215.147132 11.297836 L 208.177517 11.297836 C 208.2421 10.89419 208.274392 10.662767 208.274392 10.555128 C 208.344357 10.39367 208.376649 10.323704 208.414322 10.253739 C 208.484288 10.183774 208.548871 10.119191 208.613454 10.086899 C 208.678037 10.054607 208.882551 10.054607 209.189322 10.054607 Z M 236.002157 5.307734 L 222.983239 5.307734 L 222.983239 5.883602 C 222.983239 6.760859 223.015531 7.42822 223.015531 7.837247 C 223.080114 8.574573 223.209281 9.075094 223.413795 9.381865 C 223.655982 9.683253 224.059628 9.882385 224.657023 9.990024 C 225.066051 10.022316 225.905634 10.054607 227.111189 10.054607 L 234.522123 10.054607 C 234.48445 10.425961 234.446776 10.662767 234.414484 10.791933 C 234.414484 10.926482 234.382193 11.034121 234.317609 11.098704 C 234.253026 11.163287 234.145387 11.227871 234.016221 11.260162 C 233.946255 11.260162 233.741742 11.297836 233.478027 11.297836 L 226.44921 11.297836 C 225.2006 11.297836 224.317961 11.335509 223.849732 11.400093 C 223.273864 11.470058 222.843309 11.674572 222.536538 11.970579 C 222.272823 12.239676 222.036018 12.783252 221.863796 13.585161 C 221.799212 13.988807 221.664664 14.796098 221.492442 16.012417 L 221.298692 17.250264 C 221.126469 18.601131 221.024213 19.51068 220.991921 19.978908 L 220.991921 20.183422 C 220.991921 20.716235 221.056504 21.087589 221.2664 21.356686 C 221.46015 21.598873 221.799212 21.760331 222.272823 21.86797 C 222.741052 21.932553 223.785149 22.002519 225.405113 22.002519 L 232.697645 22.002519 C 234.382193 22.002519 235.458581 21.932553 235.937574 21.86797 C 236.405803 21.760331 236.771775 21.631165 237.046254 21.426651 C 237.347643 21.195227 237.579066 20.823873 237.718997 20.350262 C 237.885837 19.882034 238.090351 18.870228 238.284101 17.250264 L 238.763094 13.827349 L 239.295906 10.054607 C 239.468128 8.838288 239.565003 8.036379 239.565003 7.632733 C 239.602677 7.42822 239.602677 7.293671 239.602677 7.164504 C 239.602677 6.454088 239.435836 5.980477 239.096774 5.749054 C 238.89226 5.576831 238.55858 5.479957 238.090351 5.415373 C 237.686705 5.340026 236.981671 5.307734 236.002157 5.307734 Z M 227.046606 16.012417 L 233.677158 16.012417 C 233.644867 16.378389 233.612575 16.620577 233.580283 16.749743 C 233.547992 16.884292 233.510318 17.01884 233.440353 17.088806 C 233.408061 17.153389 233.338096 17.185681 233.208929 17.217972 C 233.144346 17.217972 232.939832 17.250264 232.665353 17.250264 L 226.067092 17.250264 C 226.142439 16.986549 226.174731 16.782035 226.174731 16.68516 C 226.207023 16.416063 226.244696 16.249223 226.30928 16.173875 C 226.373863 16.109292 226.44921 16.044709 226.546085 16.044709 C 226.610668 16.012417 226.777509 16.012417 227.046606 16.012417 Z M 248.310659 -1.586533 C 246.690694 -1.586533 245.646598 -1.554242 245.178369 -1.457367 C 244.677848 -1.387402 244.26882 -1.215179 244.005105 -0.946082 C 243.736008 -0.682367 243.499203 -0.241048 243.332362 0.36173 C 243.235488 0.803049 243.063265 1.739507 242.85337 3.154958 L 242.116044 8.644538 L 241.443301 13.283773 L 240.571426 19.542971 C 240.539135 19.812068 240.506843 20.0112 240.474551 20.151131 C 240.44226 20.285679 240.366912 20.382554 240.302329 20.522485 C 240.232364 20.651651 240.060142 20.856165 239.8341 21.087589 C 239.69417 21.227519 239.398163 21.496616 238.886878 21.964845 L 240.474551 21.964845 C 241.954585 21.964845 242.928717 21.932553 243.396946 21.86797 C 243.972814 21.72804 244.376459 21.53429 244.645556 21.259811 C 244.909271 20.958422 245.113785 20.490193 245.248334 19.812068 C 245.388264 19.381513 245.517431 18.531166 245.689653 17.293319 L 246.658403 10.291413 L 247.605624 3.558603 Z M 248.310659 -1.586533 " stroke="#000000" stroke-width="1.261875" stroke-opacity="1" stroke-miterlimit="4"/></g></svg>